<?xml version="1.0" encoding="utf-8"?>
<!-- Generator: Adobe Illustrator 25.4.1, SVG Export Plug-In . SVG Version: 6.00 Build 0)  -->
<svg version="1.1" id="Layer_1" xmlns="http://www.w3.org/2000/svg" xmlns:xlink="http://www.w3.org/1999/xlink" x="0px" y="0px"
	 viewBox="0 0 1200 690" style="enable-background:new 0 0 1200 690;" xml:space="preserve">
<style type="text/css">
	.st0{fill:#FFFFFF;}
</style>
<g>
	<path class="st0" d="M1198.4,3.3H981.9c-0.4,0-0.8,0.2-1.1,0.4c-0.3,0.3-0.5,0.7-0.5,1.2v296.3c0,0.5,0.2,0.9,0.5,1.2
		c0.3,0.3,0.7,0.5,1.2,0.5h216.4c0.5,0,0.9-0.2,1.2-0.5c0.3-0.3,0.5-0.7,0.5-1.2V238c0-0.4-0.2-0.8-0.4-1.1
		c-0.3-0.3-0.7-0.6-1.2-0.6h-144.1v-50.1h132.7c0.5,0,0.9-0.2,1.2-0.5c0.3-0.3,0.5-0.7,0.5-1.2v-63.2c0-0.4-0.2-0.8-0.4-1.1
		c-0.3-0.3-0.7-0.5-1.2-0.5h-132.7V69.7h144.1c0.5,0,0.9-0.2,1.2-0.5c0.3-0.3,0.5-0.7,0.5-1.2V4.9c0-0.5-0.2-0.9-0.5-1.2
		C1199.2,3.5,1198.8,3.3,1198.4,3.3z"/>
	<path class="st0" d="M618.8,3.3H504.3c-0.3,0-0.5,0.1-0.8,0.2c-0.3,0.1-0.5,0.4-0.7,0.7L338.4,300.4c-0.3,0.5-0.3,1.2,0,1.6
		c0.3,0.5,0.8,0.8,1.4,0.8h87c0.4,0,0.7-0.1,1-0.3c0.2-0.1,0.3-0.3,0.5-0.5L543.9,93.6h2.6v207.6c0,0.5,0.2,1,0.6,1.3
		c0.3,0.2,0.6,0.4,1,0.4h70.7c0.4,0,0.8-0.2,1.1-0.4c0.3-0.3,0.5-0.7,0.5-1.2V4.9c0-0.4-0.1-0.8-0.4-1.1
		C619.8,3.5,619.3,3.3,618.8,3.3z M546.5,88.9L546.5,88.9L546.5,88.9L546.5,88.9z"/>
	<g>
		<path class="st0" d="M480.3,366.8c-83.4,0-151,59.6-151,159.9s67.6,159.9,151,159.9c83.4,0,151-59.6,151-159.9
			S563.7,366.8,480.3,366.8z M480.3,613.7c-39,0-70.6-32.4-70.6-86.9c0-54.5,31.6-86.9,70.6-86.9c39,0,70.6,32.4,70.6,86.9
			C551,581.3,519.3,613.7,480.3,613.7z"/>
		<path class="st0" d="M1198.4,443.4c0.4,0,0.8-0.2,1.1-0.4c0.3-0.3,0.5-0.7,0.5-1.2v-63.2c0-0.4-0.2-0.8-0.4-1.1
			c-0.3-0.3-0.7-0.5-1.2-0.5H981.9c-0.5,0-0.9,0.2-1.2,0.5c-0.3,0.3-0.5,0.7-0.5,1.2v296.3c0,0.5,0.2,0.9,0.5,1.2
			c0.3,0.3,0.7,0.5,1.2,0.5h216.4c0.4,0,0.9-0.2,1.1-0.5c0.3-0.3,0.5-0.7,0.5-1.2v-63.2c0-0.4-0.2-0.8-0.4-1.1
			c-0.3-0.3-0.7-0.6-1.2-0.6h-144.1V560h132.7c0.5,0,0.9-0.2,1.2-0.5c0.3-0.3,0.5-0.7,0.5-1.2v-63.2c0-0.4-0.2-0.8-0.4-1.1
			c-0.3-0.3-0.7-0.5-1.2-0.5h-132.7v-50.1H1198.4z"/>
		<path class="st0" d="M934.5,377h-70.7c-0.5,0-0.9,0.2-1.2,0.5c-0.3,0.3-0.5,0.7-0.5,1.2v147.7h-2.6l-82.4-148.5
			c-0.1-0.3-0.3-0.5-0.6-0.6c-0.2-0.2-0.5-0.2-0.8-0.2H666.3c-0.5,0-0.9,0.2-1.2,0.5c-0.3,0.3-0.5,0.7-0.5,1.2v296.3
			c0,0.2,0,0.4,0.1,0.6c0.2,0.6,0.8,1,1.5,1H737c0.5,0,0.9-0.2,1.2-0.5c0.3-0.3,0.5-0.7,0.5-1.2V460.4h4c3.6,24,14.3,61,45.3,95
			c46.6,51.1,47.3,109,47,119.5c0,0.4,0.1,0.8,0.3,1c0.3,0.4,0.8,0.6,1.3,0.6h97.9c0.4,0,0.8-0.2,1.1-0.4c0.3-0.3,0.5-0.7,0.5-1.2
			V378.6c0-0.3-0.1-0.7-0.3-0.9C935.6,377.3,935.1,377,934.5,377z"/>
	</g>
	<path class="st0" d="M452.4,4.5c-0.2-0.7-0.8-1.2-1.6-1.2H347.2c-0.4,0-0.8,0.2-1.1,0.4c-0.3,0.3-0.6,0.8-0.5,1.3
		c0.3,10.5-0.4,68.4-47,119.5c-31,34-41.7,70.9-45.3,95h-4V4.9c0-0.2,0-0.4-0.1-0.6c-0.2-0.6-0.8-1-1.5-1h-75.7
		c-0.5,0-0.9,0.2-1.2,0.5c-0.3,0.3-0.5,0.7-0.5,1.2c0.3,10.5-0.4,68.4-47,119.5c-31,34-41.7,70.9-45.3,95h-4V4.9
		c0-0.2,0-0.4-0.1-0.6c-0.2-0.6-0.8-1-1.5-1H1.6c-0.5,0-0.9,0.2-1.2,0.5C0.2,4.1,0,4.5,0,4.9v296.3c0,0.6,0.3,1,0.7,1.3
		c0.3,0.2,0.6,0.3,0.9,0.3H111c0.3,0,0.6-0.1,0.8-0.2c0.2-0.1,0.5-0.4,0.6-0.6L174,191.2h1.3v110c0,0.5,0.2,0.9,0.5,1.2
		c0.3,0.3,0.7,0.5,1.2,0.5h109.4c0.3,0,0.6-0.1,0.8-0.2c0.3-0.1,0.5-0.4,0.6-0.6L452.2,5.7C452.4,5.3,452.5,4.9,452.4,4.5z"/>
	<path class="st0" d="M941.6,4.1c-0.3-0.5-0.8-0.8-1.4-0.8H836.6c-0.5,0-0.9,0.2-1.2,0.6c-0.3,0.3-0.4,0.7-0.4,1.1
		c0.3,10.5-0.4,68.4-47,119.5c-31,34-41.7,70.9-45.3,95h-4V4.9c0-0.4-0.2-0.8-0.4-1.1c-0.3-0.3-0.7-0.5-1.2-0.5h-70.7
		c-0.5,0-0.9,0.2-1.2,0.5c-0.3,0.3-0.5,0.7-0.5,1.2v296.3c0,0.4,0.2,0.8,0.5,1.1c0.3,0.3,0.7,0.5,1.2,0.5h109.4
		c0.3,0,0.6-0.1,0.8-0.2c0.2-0.1,0.5-0.4,0.6-0.6l35.7-64.4h1.3l35.8,64.4c0.1,0.3,0.3,0.5,0.6,0.6c0.3,0.2,0.6,0.2,0.9,0.2h88.8
		c0.6,0,1.1-0.3,1.4-0.8c0.3-0.5,0.3-1.1,0-1.6l-81.8-147.4L941.6,5.7C941.9,5.2,941.8,4.6,941.6,4.1z"/>
</g>
</svg>
