<?xml version="1.0" standalone="no"?>
<!DOCTYPE svg PUBLIC "-//W3C//DTD SVG 20010904//EN"
 "http://www.w3.org/TR/2001/REC-SVG-20010904/DTD/svg10.dtd">
<svg version="1.0" xmlns="http://www.w3.org/2000/svg"
 width="736.000000pt" height="552.000000pt" viewBox="0 0 736.000000 552.000000"
 preserveAspectRatio="xMidYMid meet">

<g transform="translate(0.000000,552.000000) scale(0.100000,-0.100000)"
fill="#FFFFFF" stroke="none">
<path d="M2135 4309 c-155 -30 -228 -76 -320 -204 -16 -22 -32 -42 -35 -45 -3
-3 -21 -26 -40 -52 -18 -27 -34 -48 -35 -48 -1 0 -24 22 -53 50 -131 127 -319
159 -477 81 -44 -22 -85 -55 -139 -111 -94 -99 -145 -199 -153 -300 -6 -82 19
-237 48 -296 33 -70 148 -154 232 -169 20 -4 37 -10 37 -14 0 -3 -18 -29 -41
-56 -65 -79 -71 -96 -77 -230 -8 -195 30 -310 140 -414 73 -70 147 -105 309
-147 98 -25 109 -26 191 -15 109 14 166 38 207 87 50 61 90 152 93 211 2 29 6
53 10 53 4 0 31 -15 60 -33 93 -59 154 -71 282 -57 285 33 394 95 483 277 44
91 47 100 51 200 6 136 -7 194 -63 273 -49 69 -101 117 -159 147 l-39 20 84
12 c210 30 332 65 495 141 150 70 279 156 387 259 49 47 55 43 37 -19 -36
-123 -113 -482 -130 -607 -48 -341 -80 -502 -137 -672 l-28 -83 -155 -70
c-183 -82 -526 -228 -535 -228 -3 0 -32 -12 -63 -26 -31 -14 -91 -39 -132 -56
-41 -16 -120 -51 -175 -77 -55 -26 -131 -61 -170 -77 -306 -125 -607 -321
-693 -451 -34 -51 -37 -62 -37 -122 1 -74 7 -103 30 -137 33 -50 159 -93 275
-94 67 0 185 16 204 28 6 3 19 8 28 9 19 3 75 26 173 72 166 78 196 91 209 91
7 0 19 7 26 15 7 8 20 15 29 15 9 0 21 4 26 8 6 5 26 15 45 23 125 49 376 237
504 378 17 19 44 46 60 60 41 38 206 260 294 396 7 11 32 61 57 111 l44 92
168 82 c92 45 174 87 180 92 7 6 48 11 90 13 43 2 125 14 183 28 58 13 128 29
155 34 28 6 64 17 82 24 28 11 34 11 51 -4 26 -24 65 -21 179 13 101 30 198
78 265 131 20 16 38 29 40 29 2 0 4 -10 5 -21 4 -55 46 -48 83 12 24 40 164
179 180 179 7 0 -3 -83 -15 -120 -7 -24 11 -60 30 -60 8 0 30 24 49 53 72 106
154 177 205 177 20 0 22 -3 16 -27 -3 -16 -18 -54 -33 -87 -19 -43 -23 -62
-15 -75 19 -30 38 -17 70 49 41 83 45 160 11 184 -52 37 -123 13 -203 -69 -50
-52 -58 -55 -49 -20 7 30 -18 75 -42 75 -21 0 -97 -57 -159 -120 l-50 -51 -3
50 c-3 52 -24 83 -44 63 -5 -5 -14 -32 -19 -58 -12 -63 -59 -111 -158 -163
-68 -35 -185 -78 -266 -97 -26 -6 -22 -1 35 53 91 85 130 141 119 172 -8 21
-14 23 -57 19 -26 -3 -73 -16 -105 -28 -66 -25 -86 -55 -95 -143 -4 -43 -8
-49 -38 -62 -19 -8 -62 -19 -97 -25 -34 -7 -101 -21 -148 -32 -135 -31 -138
-22 -22 55 56 37 103 72 106 79 7 21 -13 54 -43 71 -39 23 -121 22 -169 -3
-66 -33 -127 -126 -138 -211 -5 -34 -11 -43 -37 -54 -17 -7 -78 -38 -135 -69
-127 -68 -136 -69 -116 -18 39 99 75 263 109 508 38 267 44 299 98 523 81 342
92 399 78 416 -19 23 -49 18 -59 -8 -13 -35 -164 -171 -256 -232 -85 -55 -201
-118 -299 -160 -71 -30 -268 -81 -348 -90 -31 -3 -98 -13 -150 -21 -51 -8
-123 -18 -160 -21 -73 -6 -90 -21 -59 -52 17 -17 25 -18 63 -9 23 5 71 8 106
5 105 -8 203 -84 267 -206 27 -53 33 -222 10 -292 -27 -83 -59 -140 -108 -195
-79 -88 -170 -123 -370 -144 -92 -10 -114 -10 -154 4 -69 24 -127 61 -166 107
-26 29 -42 40 -58 37 -21 -3 -22 -8 -24 -93 -3 -123 -24 -180 -92 -256 -69
-76 -199 -90 -368 -39 -141 43 -175 62 -249 140 -54 57 -69 81 -85 135 -30 97
-39 169 -31 262 7 91 25 125 113 218 70 73 64 89 -38 95 -88 7 -108 14 -177
72 -64 53 -84 101 -99 233 -11 99 -10 116 5 162 37 112 159 259 255 307 72 37
188 51 256 31 69 -20 164 -82 205 -136 35 -44 50 -59 61 -59 4 0 18 24 33 53
14 28 56 93 94 142 77 102 133 142 246 177 92 28 239 23 305 -11 62 -32 130
-106 171 -187 31 -62 35 -77 35 -149 -1 -68 -5 -88 -29 -135 -16 -30 -44 -74
-63 -97 -35 -44 -36 -63 -3 -63 24 0 63 48 103 124 27 54 31 73 35 163 l4 102
-42 78 c-61 111 -76 130 -141 178 -41 30 -73 45 -116 53 -94 18 -165 21 -218
11z m2306 -1328 c-11 -16 -38 -44 -58 -62 -37 -32 -38 -32 -41 -10 -5 31 23
70 61 86 51 23 61 19 38 -14z m-427 -40 c8 -13 -210 -168 -221 -158 -11 12 41
99 80 132 34 29 48 35 88 35 26 0 50 -4 53 -9z m-740 -558 c-85 -157 -239
-365 -374 -507 -164 -173 -352 -309 -545 -395 -135 -60 -300 -136 -329 -153
-11 -6 -58 -24 -105 -41 -149 -51 -345 -42 -430 20 -57 43 -64 147 -15 230 53
91 254 236 470 339 167 80 435 200 559 251 61 25 128 53 150 63 22 10 96 41
165 70 69 28 199 85 290 125 174 76 190 83 203 84 5 1 -13 -38 -39 -86z"/>
<path d="M5508 3362 c-50 -3 -65 -20 -47 -53 6 -12 17 -18 27 -15 9 3 35 8 57
11 62 10 75 15 75 30 0 24 -37 33 -112 27z"/>
<path d="M5773 3308 c-6 -7 -13 -42 -16 -78 -3 -36 -15 -86 -27 -112 -17 -38
-19 -52 -10 -69 7 -12 17 -18 27 -15 8 3 16 6 18 6 2 0 15 31 29 68 18 47 40
82 70 111 42 41 47 43 87 37 81 -13 83 -16 75 -118 -6 -87 2 -128 24 -128 6 0
29 18 52 40 41 39 114 86 225 147 66 36 112 75 94 81 -18 6 -87 -22 -218 -88
-88 -44 -113 -54 -114 -41 -4 123 -31 156 -135 167 -57 6 -62 5 -96 -25 -41
-36 -48 -38 -48 -12 0 26 -24 45 -37 29z"/>
<path d="M5556 3238 c-3 -13 -6 -43 -6 -68 0 -25 -9 -64 -20 -88 -29 -64 -8
-95 37 -52 32 29 46 85 39 148 -9 75 -37 108 -50 60z"/>
<path d="M5933 1670 c-10 -11 -25 -20 -35 -20 -23 0 -33 -37 -15 -58 17 -19
25 -116 12 -145 -5 -12 -2 -24 8 -34 13 -14 20 -14 63 1 62 21 96 49 88 71 -4
9 -13 14 -21 11 -12 -5 -14 7 -12 67 3 81 0 91 -42 112 -27 14 -30 14 -46 -5z
m37 -137 c0 -28 -3 -34 -10 -23 -13 20 -13 60 0 60 6 0 10 -17 10 -37z"/>
<path d="M5507 1673 c-12 -11 4 -107 21 -125 22 -26 32 -13 32 40 0 60 -30
108 -53 85z"/>
<path d="M5386 1661 c-3 -5 -6 -46 -7 -91 -1 -60 3 -85 12 -91 15 -9 39 15 39
39 0 8 6 12 15 8 43 -16 62 33 21 52 -17 7 -29 25 -36 52 -10 37 -31 52 -44
31z"/>
<path d="M5097 1643 c-4 -3 -7 -17 -7 -29 0 -35 -44 -43 -68 -13 -27 32 -42
16 -42 -42 0 -43 5 -55 30 -81 18 -17 37 -28 45 -24 11 4 15 -2 15 -24 0 -27
-3 -30 -30 -30 -34 0 -49 -22 -30 -45 21 -25 100 -19 163 13 33 17 62 25 69
21 8 -4 42 -1 77 8 54 14 62 19 59 37 -2 17 -11 22 -44 24 -39 3 -42 6 -48 37
-14 71 -62 71 -52 0 5 -29 3 -45 -6 -52 -12 -9 -100 -35 -104 -30 -1 1 3 43 8
94 6 50 8 103 4 117 -6 25 -25 34 -39 19z"/>
<path d="M5787 1620 c-15 -40 -65 -52 -85 -21 -21 30 -49 26 -72 -11 -26 -43
-25 -52 8 -89 24 -27 33 -31 56 -25 16 4 30 15 33 24 5 19 51 57 60 49 2 -3
10 -27 17 -54 9 -37 17 -49 34 -51 18 -3 22 1 22 25 0 33 -25 157 -35 172 -11
19 -26 12 -38 -19z"/>
<path d="M5210 1631 c-28 -8 -39 -39 -18 -52 7 -5 32 -6 56 -3 41 6 42 6 42
-24 0 -36 25 -61 43 -43 17 17 12 88 -8 111 -19 21 -65 25 -115 11z"/>
<path d="M4523 1563 c-4 -10 2 -23 16 -34 l21 -18 -25 -25 c-14 -14 -25 -22
-25 -19 0 3 -7 0 -15 -7 -19 -16 -18 -17 -45 48 -16 36 -28 52 -41 52 -23 0
-25 -24 -4 -72 7 -19 15 -55 16 -79 3 -62 15 -82 39 -69 11 6 20 16 20 23 0 7
9 20 20 30 11 9 20 24 20 34 0 22 13 8 17 -19 2 -11 -4 -29 -13 -39 -14 -16
-15 -21 -3 -35 14 -17 50 -15 132 7 31 8 37 14 37 36 0 25 -1 26 -49 20 -49
-6 -49 -6 -54 26 -3 21 1 36 11 43 24 17 19 74 -7 96 -29 22 -60 23 -68 1z"/>
<path d="M4110 1523 c0 -21 5 -56 10 -78 5 -22 7 -41 5 -44 -11 -10 -45 34
-45 59 0 28 -16 50 -37 50 -8 0 -13 -12 -13 -29 0 -16 -5 -52 -12 -81 -9 -40
-15 -49 -27 -44 -9 4 -28 7 -43 8 -33 1 -35 7 -8 24 27 17 26 50 -2 54 -15 2
-24 13 -30 36 -6 22 -14 32 -28 32 -11 0 -20 -6 -20 -14 0 -19 17 -108 25
-127 4 -12 -4 -21 -30 -33 -25 -12 -34 -22 -31 -34 2 -9 7 -30 11 -47 3 -16
14 -41 24 -55 l19 -24 44 23 c45 23 119 107 138 157 8 21 14 24 22 16 7 -7 22
-12 35 -12 15 0 23 -6 23 -18 0 -24 19 -42 36 -35 10 4 13 15 8 39 -5 28 -2
37 22 57 33 29 28 57 -10 50 -21 -4 -26 -1 -31 23 -14 61 -22 79 -38 82 -14 3
-17 -4 -17 -35z m-180 -248 c-33 -34 -50 -37 -50 -10 0 18 39 45 64 45 17 0
15 -5 -14 -35z"/>
<path d="M4251 1539 c-17 -7 -21 -14 -16 -27 4 -9 8 -30 9 -47 1 -37 29 -44
75 -20 33 16 42 51 17 61 -8 3 -16 14 -19 25 -6 20 -28 23 -66 8z"/>
<path d="M5483 1508 c-36 -8 -43 -13 -43 -34 0 -17 8 -27 26 -34 24 -9 24 -11
10 -32 -21 -30 -20 -45 4 -58 23 -12 85 9 106 38 18 23 17 67 -1 102 -17 32
-29 35 -102 18z m66 -65 c0 -25 -1 -25 -8 -8 -5 11 -7 23 -4 28 8 14 13 7 12
-20z"/>
<path d="M3753 1457 c-24 -11 -43 -26 -43 -33 0 -18 26 -35 43 -28 13 5 15 0
10 -31 -4 -26 -2 -40 8 -45 19 -12 26 -5 49 47 23 52 25 84 8 101 -16 16 -25
15 -75 -11z"/>
<path d="M3324 1417 c-8 -23 15 -97 33 -104 24 -9 68 22 68 49 0 19 -5 23 -25
20 -18 -1 -28 5 -35 20 -12 27 -33 35 -41 15z"/>
<path d="M2893 1408 c-27 -13 -28 -21 -7 -43 17 -17 42 -13 81 11 50 32 -16
60 -74 32z"/>
<path d="M3235 1388 c-6 -29 -9 -65 -7 -100 2 -21 7 -28 22 -28 11 0 20 4 20
9 0 5 11 12 25 15 30 8 36 46 6 46 -14 0 -20 10 -25 40 -7 44 -32 55 -41 18z"/>
<path d="M4266 1392 c-16 -49 44 -109 92 -91 47 18 37 81 -15 92 -15 4 -38 9
-50 13 -15 4 -23 1 -27 -14z"/>
<path d="M3087 1343 c3 -27 10 -54 16 -61 7 -9 4 -21 -11 -42 -12 -16 -22 -36
-22 -43 0 -23 51 -67 76 -67 22 0 64 34 64 52 0 25 -31 77 -49 83 -27 8 -27
19 3 39 33 21 25 60 -11 53 -16 -3 -27 2 -34 14 -5 11 -16 19 -24 19 -12 0
-13 -10 -8 -47z m66 -119 c3 -4 2 -16 -4 -26 -13 -24 -35 -9 -26 16 7 17 19
21 30 10z"/>
<path d="M2940 1339 c-54 -36 -56 -40 -31 -63 11 -10 17 -25 14 -37 -3 -10 2
-30 11 -44 34 -51 106 -20 106 45 0 33 -17 50 -49 50 l-25 0 22 16 c23 16 27
54 7 61 -5 1 -30 -11 -55 -28z"/>
<path d="M3318 1238 c-21 -23 -38 -45 -38 -50 0 -5 11 -20 25 -33 32 -33 75
-32 114 1 36 30 39 61 10 98 -31 39 -64 34 -111 -16z m82 -12 c0 -14 -36 -46
-52 -46 -17 0 -7 30 14 44 28 20 38 20 38 2z"/>
<path d="M5584 1098 c-37 -17 -52 -65 -44 -135 4 -33 11 -66 15 -73 4 -7 -1
-13 -14 -17 -23 -6 -28 -35 -8 -51 19 -16 227 26 227 46 -1 24 -21 34 -59 30
l-41 -4 0 43 c0 24 4 43 9 43 19 0 39 30 34 50 -6 22 -71 80 -88 79 -5 0 -19
-5 -31 -11z m60 -47 c3 -5 -4 -11 -17 -15 -35 -9 -40 -7 -27 9 14 17 36 20 44
6z m-32 -106 c1 -14 2 -32 2 -40 1 -8 -3 -16 -9 -17 -10 -3 -26 68 -17 77 12
12 22 3 24 -20z"/>
<path d="M5386 1083 c-3 -4 -3 -29 0 -56 4 -27 7 -67 8 -90 1 -48 29 -65 41
-25 4 13 16 33 28 45 16 18 18 25 7 38 -7 8 -16 12 -21 9 -5 -3 -9 2 -9 10 0
38 -37 85 -54 69z"/>
<path d="M5286 1064 c-4 -10 -9 -43 -13 -74 -5 -50 -3 -60 17 -80 16 -16 28
-20 48 -15 50 12 56 58 8 63 -27 3 -28 5 -23 47 3 34 0 48 -13 60 -16 15 -18
14 -24 -1z"/>
<path d="M6007 1036 l-34 -45 -42 25 c-57 34 -72 29 -87 -30 -14 -54 -5 -96
21 -96 11 0 15 11 15 45 0 25 3 45 8 45 4 0 27 -13 51 -29 25 -17 48 -28 53
-25 4 3 24 29 43 59 30 45 34 57 25 74 -6 12 -13 21 -15 21 -2 0 -19 -20 -38
-44z"/>
<path d="M5160 1044 c-6 -14 -10 -31 -10 -38 0 -25 -11 -23 -40 5 -33 33 -73
38 -109 13 -20 -14 -22 -22 -17 -57 13 -76 26 -86 89 -61 13 4 14 -2 10 -33
-6 -46 25 -93 61 -93 31 0 76 37 76 62 0 16 -4 19 -22 14 -70 -19 -68 -19 -68
6 0 13 -5 29 -12 36 -9 9 -8 16 5 30 17 16 19 16 28 0 8 -15 14 -14 60 8 56
28 64 57 17 62 -18 2 -25 8 -22 17 7 16 -12 55 -27 55 -5 0 -14 -12 -19 -26z
m-94 -79 c-25 -19 -36 -19 -36 0 0 10 10 15 28 15 26 -1 26 -1 8 -15z"/>
<path d="M3904 1046 c-18 -8 -35 -19 -38 -25 -4 -6 -30 -11 -57 -11 -65 0
-109 -22 -109 -55 0 -29 134 -175 160 -175 18 0 81 72 116 133 31 55 32 110 2
131 -27 19 -34 19 -74 2z m46 -51 c0 -32 -73 -145 -94 -145 -21 1 -110 86
-102 98 13 21 36 13 54 -18 9 -16 23 -32 31 -35 18 -7 41 13 41 37 0 20 42 68
60 68 5 0 10 -2 10 -5z"/>
<path d="M3502 1011 l-33 -28 7 -110 c4 -73 3 -116 -4 -130 -8 -15 -8 -25 2
-38 12 -16 20 -17 102 -5 115 15 136 24 132 53 -3 20 -8 22 -49 19 l-46 -3 -5
58 c-3 31 -1 71 5 89 13 42 1 101 -23 114 -30 16 -53 11 -88 -19z m68 -56 c0
-24 -31 -51 -44 -38 -11 11 -6 51 7 56 26 11 37 6 37 -18z m-16 -163 c-9 -47
-20 -39 -23 15 -1 43 0 46 14 32 11 -10 13 -25 9 -47z"/>
<path d="M4292 991 c2 -23 0 -41 -4 -41 -5 0 -8 13 -8 29 0 31 -14 49 -25 31
-3 -5 -8 -39 -11 -75 -5 -52 -2 -71 11 -91 16 -24 21 -26 70 -19 50 6 53 5 59
-19 7 -30 24 -32 69 -10 l32 16 -28 -30 c-34 -36 -33 -70 4 -91 31 -17 71 -9
99 21 39 42 18 76 -26 43 -31 -23 -35 -17 -14 18 24 39 26 73 4 81 -27 10 -74
7 -103 -9 l-29 -14 -1 84 c-2 97 -7 117 -30 113 -12 -3 -15 -13 -14 -38 l3
-35 -13 35 c-7 20 -20 36 -31 38 -16 3 -18 -1 -14 -37z m54 -108 c-10 -10 -19
5 -10 18 6 11 8 11 12 0 2 -7 1 -15 -2 -18z"/>
<path d="M3383 989 c-8 -8 -10 -29 -6 -60 7 -60 -6 -63 -32 -6 -11 24 -28 44
-39 46 -17 3 -18 -1 -12 -40 20 -127 20 -122 -5 -114 -34 11 -36 15 -16 29 18
14 24 56 7 56 -22 0 -150 -71 -150 -83 0 -22 16 -38 33 -31 14 5 17 0 17 -28
0 -44 24 -78 56 -78 23 0 64 31 64 49 0 5 8 8 18 7 11 -1 25 15 40 47 24 51
42 61 42 23 0 -25 15 -36 38 -29 15 6 15 37 1 120 -13 72 -37 111 -56 92z
m-130 -234 c-6 -17 -25 -15 -31 3 -2 7 5 12 17 12 14 0 19 -5 14 -15z"/>
<path d="M4446 984 c-10 -27 -7 -69 8 -89 13 -18 14 -18 50 4 20 13 36 25 36
28 0 10 -68 73 -78 73 -6 0 -13 -7 -16 -16z"/>
<path d="M4730 968 c0 -43 28 -158 42 -175 32 -39 36 13 10 127 -13 54 -22 76
-35 78 -13 3 -17 -4 -17 -30z"/>
<path d="M4599 969 c-12 -7 -12 -12 -1 -29 10 -17 11 -28 0 -57 -12 -33 -11
-36 15 -59 23 -20 32 -22 55 -13 66 25 79 76 16 64 -33 -6 -33 -6 -23 24 17
49 -24 94 -62 70z"/>
<path d="M3198 951 c-60 -20 -72 -32 -56 -54 12 -16 16 -16 68 2 38 14 56 25
58 39 4 28 -16 31 -70 13z"/>
<path d="M3017 954 c-4 -4 -4 -31 -1 -60 5 -38 3 -58 -6 -69 -15 -18 -70 -49
-76 -43 -2 2 8 21 21 41 14 20 28 50 31 66 5 24 1 32 -20 46 -49 32 -148 2
-132 -40 5 -13 14 -15 52 -9 29 4 45 3 43 -3 -2 -5 -17 -35 -33 -65 -29 -54
-29 -56 -13 -82 10 -14 24 -26 33 -26 28 0 95 41 106 65 6 14 15 25 20 25 5 0
26 14 48 31 43 35 47 65 8 62 -19 -1 -28 6 -39 30 -14 31 -30 43 -42 31z"/>
<path d="M2777 923 c-3 -4 -1 -48 3 -98 5 -49 8 -101 7 -115 -2 -19 3 -25 18
-25 16 0 22 10 30 47 5 25 18 55 28 65 29 33 20 71 -14 53 -15 -9 -19 -4 -26
32 -8 40 -33 62 -46 41z"/>
<path d="M2650 875 c-5 -14 -10 -30 -10 -34 0 -5 -7 -14 -16 -22 -8 -7 -13
-21 -10 -32 2 -10 -5 -38 -16 -62 -21 -43 -19 -80 5 -73 6 3 23 24 36 47 19
35 27 42 45 36 41 -12 51 -10 54 13 3 16 -5 27 -27 40 -28 15 -31 21 -29 61 3
51 -16 67 -32 26z"/>
<path d="M3043 770 c-38 -23 -53 -48 -53 -89 0 -64 70 -83 121 -32 33 34 39
83 13 119 -19 27 -39 28 -81 2z m47 -60 c0 -23 -30 -42 -49 -31 -10 6 -8 13
10 30 28 26 39 27 39 1z"/>
</g>
</svg>
