<?xml version="1.0" standalone="no"?>
<!DOCTYPE svg PUBLIC "-//W3C//DTD SVG 20010904//EN"
 "http://www.w3.org/TR/2001/REC-SVG-20010904/DTD/svg10.dtd">
<svg version="1.0" xmlns="http://www.w3.org/2000/svg"
 width="736.000000pt" height="552.000000pt" viewBox="0 0 736.000000 552.000000"
 preserveAspectRatio="xMidYMid meet">

<g transform="translate(0.000000,552.000000) scale(0.100000,-0.100000)"
fill="#FFFFFF" stroke="none">
<path d="M3224 4100 c-62 -13 -135 -53 -195 -109 l-54 -50 22 -22 21 -22 59
50 c76 66 115 85 188 92 52 5 60 9 63 28 3 17 -3 26 -23 33 -14 5 -29 10 -33
9 -4 -1 -26 -5 -48 -9z"/>
<path d="M4123 4100 c-26 -11 -28 -19 -10 -44 13 -18 33 -20 83 -10 48 9 138
-14 183 -47 46 -32 69 -37 78 -13 17 45 -121 116 -237 121 -41 1 -85 -1 -97
-7z"/>
<path d="M4187 3706 c-7 -8 -38 -75 -67 -149 -49 -125 -54 -135 -74 -128 -33
13 -59 5 -83 -25 -60 -76 -61 -266 -1 -308 19 -13 20 -24 19 -138 -2 -118 15
-259 41 -338 l11 -34 -87 -83 c-188 -180 -412 -241 -574 -159 -74 38 -146 108
-183 181 l-34 65 87 85 c111 109 176 196 233 311 55 110 74 181 82 296 16 238
-105 433 -250 404 -62 -12 -123 -86 -156 -188 -9 -27 -18 -38 -33 -38 -77 0
-149 -251 -95 -333 14 -22 18 -56 21 -204 3 -140 8 -192 23 -245 l20 -67 -60
-47 c-238 -188 -507 -316 -877 -420 -46 -13 -86 -21 -89 -18 -4 4 17 120 70
374 88 425 171 936 173 1065 l1 80 -31 3 c-27 3 -32 -1 -37 -25 -3 -15 -37
-80 -75 -143 -139 -232 -200 -336 -233 -400 -19 -35 -39 -69 -46 -75 -7 -5
-23 -29 -35 -51 -13 -23 -39 -67 -58 -98 -19 -31 -46 -76 -60 -100 -77 -133
-219 -322 -266 -353 -33 -21 -52 -11 -74 39 -51 118 -35 310 71 842 28 137 54
257 59 267 14 26 13 29 -15 29 -37 0 -56 -52 -105 -287 -79 -378 -107 -590
-97 -727 9 -129 36 -183 105 -213 99 -42 189 66 535 642 274 458 281 469 284
458 7 -19 -62 -453 -106 -669 -11 -54 -25 -128 -31 -164 -6 -36 -22 -114 -35
-175 -13 -60 -31 -148 -40 -195 -24 -125 -34 -160 -49 -160 -32 0 -310 -101
-385 -140 -135 -70 -269 -214 -331 -355 -13 -27 -29 -62 -36 -76 -7 -14 -25
-66 -39 -115 -35 -119 -38 -261 -6 -346 26 -68 82 -122 142 -138 114 -31 294
82 407 255 101 155 206 427 287 740 20 77 39 143 43 146 4 3 36 14 72 23 387
103 639 217 933 426 33 23 60 40 61 38 2 -2 16 -27 31 -56 52 -96 162 -180
279 -213 85 -23 177 -15 296 25 105 35 183 83 273 165 l59 55 36 -43 c91 -110
217 -93 327 46 74 94 255 403 391 670 70 136 131 253 137 258 6 7 7 -37 3
-125 -24 -511 12 -744 133 -853 71 -64 147 -61 213 7 31 31 78 118 190 346
135 274 287 565 293 558 1 -2 -2 -39 -7 -83 -25 -215 25 -473 129 -659 44 -80
164 -207 243 -259 100 -65 224 -106 270 -89 22 8 20 9 -18 16 -183 29 -399
230 -486 454 -74 187 -93 410 -58 656 11 76 18 145 15 152 -3 8 -17 14 -32 14
-24 0 -32 -11 -84 -117 -31 -65 -73 -145 -92 -178 -19 -33 -35 -70 -35 -81 0
-12 -7 -24 -15 -28 -8 -3 -15 -12 -15 -20 0 -8 -4 -16 -9 -18 -4 -1 -56 -102
-115 -223 -59 -121 -112 -227 -117 -235 -5 -8 -13 -24 -18 -36 -19 -44 -81
-133 -107 -153 -48 -38 -97 -19 -139 54 -70 119 -91 328 -75 735 7 165 9 312
6 325 -5 18 -13 25 -31 25 -22 0 -32 -16 -91 -137 -97 -201 -168 -343 -193
-383 -11 -19 -21 -41 -21 -48 0 -7 -13 -33 -30 -57 -16 -24 -30 -46 -30 -49 0
-3 -16 -30 -35 -60 -19 -30 -35 -61 -35 -69 0 -8 -7 -20 -16 -28 -8 -7 -27
-36 -41 -63 -14 -28 -29 -53 -32 -56 -4 -3 -24 -30 -44 -60 -56 -86 -102 -134
-151 -161 l-46 -24 -37 20 c-22 12 -46 38 -61 65 l-25 45 67 100 c156 233 239
483 240 730 1 144 -17 207 -80 272 -35 37 -46 43 -82 43 -22 0 -47 -6 -55 -14z
m97 -52 c91 -90 84 -380 -14 -651 -35 -95 -167 -333 -189 -341 -18 -6 -41 158
-41 293 0 101 2 106 47 176 34 52 49 129 35 189 -12 53 -7 73 68 250 45 106
60 119 94 84z m-871 -44 c54 -47 90 -169 88 -297 -1 -79 -27 -178 -75 -279
-58 -123 -109 -195 -207 -295 l-82 -84 -15 45 c-8 27 -16 109 -19 203 l-6 157
31 0 c54 0 84 51 103 173 12 73 2 137 -29 184 -13 20 -11 29 19 93 57 125 124
160 192 100z m-1485 -1722 c-43 -165 -151 -491 -168 -508 -3 -3 -24 -44 -48
-92 -54 -107 -142 -212 -228 -274 -112 -80 -190 -71 -241 29 -32 63 -42 178
-24 282 15 85 71 228 125 320 55 94 173 212 261 261 60 33 320 132 352 133 7
1 -3 -54 -29 -151z"/>
<path d="M5478 1878 c-34 -33 -56 -101 -57 -176 -2 -106 104 -168 179 -106 27
23 34 25 56 15 56 -25 104 -1 104 52 0 33 -9 34 -44 6 -34 -27 -48 -16 -52 43
-2 30 -9 47 -23 57 -12 7 -21 22 -21 33 0 32 -29 77 -60 93 -40 21 -45 20 -82
-17z m74 -63 c-12 -26 -42 -35 -42 -12 0 7 7 23 16 36 22 31 43 13 26 -24z
m48 -105 c0 -31 -48 -90 -73 -90 -24 0 -47 40 -47 81 0 19 2 38 4 40 2 2 29 2
60 1 54 -4 56 -5 56 -32z"/>
<path d="M5274 1788 c10 -155 46 -268 85 -268 29 0 31 10 10 63 -13 32 -25
100 -32 177 l-12 125 -29 3 -29 4 7 -104z"/>
<path d="M5971 1856 c-8 -10 -23 -13 -46 -9 -45 7 -53 -12 -30 -70 21 -52 42
-77 67 -77 65 0 116 112 70 153 -23 21 -46 22 -61 3z"/>
<path d="M5177 1833 c-4 -3 -7 -32 -7 -63 l0 -57 -50 -7 c-55 -7 -65 -24 -29
-50 16 -10 28 -12 46 -5 40 15 49 11 63 -30 13 -40 36 -59 52 -43 5 5 2 37 -7
73 -8 35 -15 87 -15 116 0 41 -4 54 -19 63 -23 12 -26 12 -34 3z"/>
<path d="M4347 1793 c-4 -4 -4 -22 -1 -41 6 -29 3 -37 -22 -58 -38 -30 -44
-30 -44 5 0 33 -22 56 -46 47 -13 -5 -16 -16 -12 -56 6 -57 26 -84 73 -100 27
-9 34 -18 40 -48 6 -30 3 -39 -15 -54 -12 -10 -32 -18 -44 -18 -12 0 -31 -6
-42 -14 -18 -14 -18 -16 -2 -32 16 -16 23 -17 65 -5 27 7 85 23 130 36 90 24
113 38 113 66 0 23 -14 24 -70 4 -56 -20 -59 -19 -71 12 -8 22 -7 34 5 55 30
49 14 178 -24 198 -22 12 -25 12 -33 3z"/>
<path d="M5001 1776 c-6 -7 -16 -56 -23 -110 -13 -102 -8 -128 26 -134 16 -4
20 2 30 50 6 27 6 27 41 12 20 -8 40 -12 45 -9 18 11 10 35 -14 45 -13 5 -33
22 -45 38 -17 25 -19 35 -11 57 11 30 8 40 -20 55 -13 7 -21 6 -29 -4z"/>
<path d="M4745 1770 c-16 -26 43 -280 65 -280 5 0 16 -3 26 -7 15 -5 16 -2 11
28 -3 19 -8 42 -12 52 -6 13 -2 17 16 17 13 0 41 5 62 11 30 8 37 14 37 36 0
21 -4 24 -22 20 -63 -15 -96 -18 -102 -9 -3 6 -11 34 -16 63 -6 28 -15 58 -21
66 -13 15 -35 17 -44 3z"/>
<path d="M4574 1755 c-8 -21 32 -82 58 -89 37 -9 39 6 8 57 -30 47 -56 60 -66
32z"/>
<path d="M3823 1725 c-3 -9 2 -35 11 -59 35 -92 93 -101 62 -10 -24 70 -59
104 -73 69z"/>
<path d="M4122 1673 c-1 -44 -15 -66 -37 -60 -5 2 -12 14 -13 28 -5 32 -20 49
-45 49 -18 0 -19 -5 -15 -62 3 -35 14 -80 23 -100 26 -53 77 -60 60 -9 -4 14
0 23 14 30 28 16 31 14 42 -19 11 -30 44 -49 60 -33 6 6 3 26 -6 52 -8 24 -15
67 -15 95 0 56 -12 76 -46 76 -19 0 -22 -6 -22 -47z"/>
<path d="M4542 1652 c-18 -13 -4 -41 25 -48 26 -7 26 -11 2 -72 -16 -39 -5
-62 35 -77 34 -12 82 12 114 58 29 43 28 61 -5 77 -16 8 -38 25 -49 38 -23 26
-98 41 -122 24z m116 -111 c-7 -12 -16 -21 -21 -21 -8 0 -2 14 16 38 16 20 20
6 5 -17z"/>
<path d="M3810 1581 c-47 -8 -53 -38 -11 -54 22 -8 30 -16 25 -27 -18 -47 -16
-77 7 -94 53 -37 114 -5 155 82 14 30 14 36 2 48 -8 8 -30 16 -49 17 -18 1
-42 10 -51 20 -19 18 -22 18 -78 8z m110 -80 c0 -5 -9 -19 -20 -32 -19 -23
-19 -23 -20 -3 0 20 17 44 32 44 4 0 8 -4 8 -9z"/>
<path d="M4378 1427 c-73 -28 -84 -39 -63 -61 22 -22 35 -20 89 10 54 30 70
25 62 -21 -6 -29 -4 -33 18 -37 33 -7 46 8 46 54 0 46 -28 78 -67 77 -16 0
-54 -10 -85 -22z"/>
<path d="M4042 1424 c-18 -12 -22 -25 -22 -65 0 -45 3 -51 33 -69 44 -27 61
-25 91 11 32 37 35 97 8 122 -23 21 -81 22 -110 1z m68 -46 c0 -19 -18 -43
-25 -36 -4 3 -2 16 5 27 12 24 20 27 20 9z"/>
</g>
</svg>
