<?xml version="1.0" standalone="no"?>
<!DOCTYPE svg PUBLIC "-//W3C//DTD SVG 20010904//EN"
 "http://www.w3.org/TR/2001/REC-SVG-20010904/DTD/svg10.dtd">
<svg version="1.0" xmlns="http://www.w3.org/2000/svg"
 width="736.000000pt" height="552.000000pt" viewBox="0 0 736.000000 552.000000"
 preserveAspectRatio="xMidYMid meet">

<g transform="translate(0.000000,552.000000) scale(0.100000,-0.100000)"
fill="#FFFFFF" stroke="none">
<path d="M5552 4709 c-79 -10 -120 -23 -199 -62 -75 -36 -159 -109 -202 -174
-62 -94 -28 -221 81 -297 12 -9 20 -17 17 -19 -109 -80 -182 -193 -194 -303
-16 -141 58 -283 180 -347 74 -37 252 -38 360 -2 81 28 197 90 245 132 38 33
59 42 130 57 160 33 279 114 339 230 17 32 31 65 31 73 0 42 62 -62 87 -146
12 -43 14 -80 10 -161 -26 -466 -518 -1032 -1164 -1336 -230 -109 -634 -257
-651 -239 -2 2 7 23 22 47 14 24 34 61 46 83 11 22 29 54 40 70 11 17 25 41
31 55 29 64 44 90 51 90 5 0 8 8 8 18 0 10 8 27 18 38 9 10 26 36 37 56 18 35
18 38 2 56 -9 10 -17 24 -17 30 0 16 -31 30 -59 26 -37 -6 -107 -48 -208 -124
-103 -77 -119 -82 -353 -115 -142 -21 -250 -48 -312 -81 -26 -13 -50 -24 -53
-24 -10 0 36 62 70 96 29 29 122 172 119 184 -1 3 5 14 12 25 23 32 18 74 -10
86 -53 24 -168 -24 -319 -134 -201 -145 -190 -140 -116 -57 99 114 132 159
125 175 -8 23 -30 18 -47 -10 -22 -37 -116 -150 -173 -208 -60 -60 -217 -165
-318 -211 -147 -68 -238 -81 -238 -34 0 23 21 90 31 98 3 3 15 20 25 39 35 63
41 71 70 104 24 27 176 214 207 255 7 9 5 18 -8 30 -12 12 -19 14 -22 5 -11
-31 -218 -286 -276 -339 -75 -71 -243 -184 -330 -223 -116 -52 -167 -46 -169
17 -1 37 33 152 44 152 5 0 8 6 8 14 0 12 56 103 91 151 46 60 179 203 307
328 69 67 85 98 61 113 -6 3 -53 -37 -107 -93 -183 -188 -338 -297 -817 -578
-82 -48 -181 -107 -220 -130 -135 -81 -154 -87 -118 -35 9 13 29 47 43 74 15
28 39 74 55 101 41 74 48 88 114 230 34 72 66 137 71 145 12 17 61 122 107
230 17 39 94 203 153 325 21 44 42 92 45 108 4 15 12 27 18 27 6 0 7 3 4 6 -4
4 0 19 8 33 16 30 56 120 76 171 20 54 65 121 105 160 39 37 183 225 229 299
49 79 164 297 165 312 0 4 10 28 22 55 26 57 27 62 34 134 5 47 3 58 -14 73
-33 30 -63 18 -104 -43 -51 -75 -170 -309 -261 -515 -149 -335 -165 -367 -203
-407 -46 -48 -198 -173 -344 -285 -107 -81 -384 -273 -395 -273 -3 0 -31 -16
-63 -36 -61 -39 -286 -155 -446 -228 -106 -49 -266 -143 -266 -157 0 -22 25
-16 80 20 56 38 192 110 270 145 19 9 42 20 50 24 8 5 62 32 120 60 125 62
217 112 285 156 122 80 242 161 266 180 15 12 53 40 85 64 80 58 177 134 273
215 45 37 81 66 81 63 0 -17 -211 -481 -375 -826 -175 -368 -194 -405 -240
-490 -136 -248 -113 -221 -270 -316 -454 -275 -639 -433 -737 -633 -58 -116
-45 -239 31 -284 58 -34 121 -14 222 73 61 53 219 238 219 257 0 7 4 13 9 13
5 0 22 20 38 45 15 25 31 45 36 45 4 0 7 5 7 11 0 6 20 39 45 73 25 35 45 67
45 72 0 4 8 17 18 28 16 18 52 73 140 215 12 20 31 52 42 72 19 37 95 109 113
109 6 0 24 10 41 23 31 23 85 55 186 109 30 16 62 35 70 42 8 7 40 27 70 43
30 16 77 44 104 61 28 18 54 32 59 32 4 0 28 14 52 30 24 17 48 30 53 30 5 0
17 9 27 20 10 11 27 22 39 26 11 4 37 20 57 35 20 16 40 29 43 29 4 0 19 11
34 25 15 14 32 25 39 25 7 0 13 4 13 10 0 5 10 15 22 21 l22 12 -22 -29 c-140
-184 -183 -266 -190 -363 -4 -65 -3 -74 18 -97 38 -39 101 -32 214 26 88 45
207 120 234 147 24 23 33 14 17 -17 -20 -38 -19 -90 1 -119 16 -22 22 -23 78
-17 33 3 65 11 70 16 6 6 17 10 26 10 14 0 70 25 130 58 53 30 100 52 100 48
0 -3 -20 -19 -45 -37 -47 -34 -56 -53 -28 -63 15 -6 25 0 85 54 9 8 35 28 57
44 23 17 41 33 41 38 0 4 4 8 10 8 5 0 20 10 34 23 33 30 42 37 106 81 30 21
57 41 60 44 7 10 129 102 135 102 2 0 26 13 52 28 52 31 126 57 158 57 46 0
22 -62 -76 -196 -61 -83 -225 -242 -274 -266 -40 -19 -46 -32 -21 -48 11 -7
32 2 83 36 164 110 326 168 518 185 33 3 66 7 73 9 7 3 33 7 59 11 l46 6 -22
-31 c-12 -17 -21 -41 -19 -53 3 -24 46 -46 69 -34 30 14 89 52 111 71 13 11
40 31 60 43 20 13 38 26 40 30 2 4 21 19 43 33 22 14 53 34 69 44 l29 19 -13
-24 c-71 -134 -176 -318 -212 -376 -50 -77 -58 -82 -173 -108 -162 -36 -219
-47 -400 -76 -512 -81 -725 -135 -915 -228 -91 -45 -110 -71 -92 -130 33 -111
320 -302 492 -328 86 -13 207 3 266 34 11 6 54 26 97 46 43 20 87 45 99 56 12
11 26 20 31 20 10 0 143 102 162 124 6 7 27 25 49 41 21 16 53 49 72 73 19 25
34 42 34 38 0 -4 23 19 50 52 28 33 50 62 50 66 0 3 10 16 23 29 35 37 70 86
91 124 20 37 76 79 116 87 14 3 50 12 80 21 30 9 64 19 75 22 11 3 25 10 30
14 6 4 26 11 45 14 19 3 39 10 45 14 5 4 30 13 54 20 24 7 68 24 97 37 29 13
59 24 67 24 8 0 20 7 27 15 7 8 17 15 23 15 11 0 89 34 117 50 8 5 40 22 70
37 30 15 58 31 61 36 4 5 11 7 17 4 5 -4 17 2 27 12 9 11 41 31 71 45 30 14
57 33 60 41 4 8 14 15 24 15 9 0 25 9 35 20 11 12 45 39 77 61 32 22 67 47 77
57 10 9 37 33 61 52 82 65 300 295 300 314 0 4 6 13 13 20 35 36 134 194 166
267 53 120 60 138 67 165 3 16 13 49 22 74 10 30 15 82 15 160 0 131 -15 185
-82 287 -33 51 -37 65 -36 113 4 139 -80 277 -204 333 -35 16 -66 21 -128 21
l-83 0 0 34 c0 76 -67 158 -154 190 -64 24 -153 32 -234 21z m244 -54 c66 -32
104 -87 104 -149 0 -51 -6 -56 -81 -79 -74 -22 -112 -52 -106 -83 4 -21 -1
-23 -62 -34 -111 -19 -212 -50 -295 -91 l-79 -39 -33 25 c-65 50 -96 117 -84
183 21 118 183 247 361 287 92 21 208 13 275 -20z m-2821 -103 c-15 -99 -116
-313 -230 -487 -72 -111 -169 -237 -185 -243 -13 -5 3 46 29 91 11 21 21 43
21 49 0 6 21 54 46 107 25 53 49 105 54 116 19 49 83 176 91 181 5 3 9 16 9
30 0 13 4 24 8 24 5 0 16 17 25 38 16 37 31 62 55 91 7 9 25 31 39 49 23 29
27 32 36 17 5 -9 6 -38 2 -63z m3180 -141 c91 -40 153 -139 162 -259 l6 -76
-31 23 c-54 38 -140 72 -218 86 -69 12 -78 16 -110 53 -20 24 -53 48 -79 58
l-45 17 34 37 c18 20 38 45 44 56 20 36 158 38 237 5z m-323 -41 c-35 -32 -96
-44 -71 -14 14 17 66 42 89 43 9 0 2 -11 -18 -29z m55 -109 c42 -21 79 -57 66
-63 -4 -3 -28 -6 -53 -7 -130 -6 -270 -64 -359 -149 -70 -67 -84 -107 -56
-166 17 -35 68 -76 96 -76 8 -1 23 -15 34 -33 30 -48 79 -75 146 -83 32 -4 59
-9 59 -13 0 -24 -189 -121 -285 -146 -76 -19 -210 -20 -266 0 -164 58 -232
262 -145 439 23 48 66 99 128 155 l27 23 46 -22 c57 -28 84 -14 30 16 -19 10
-34 22 -32 27 1 5 34 22 72 38 198 84 398 108 492 60z m348 -160 c85 -45 89
-59 46 -146 -38 -76 -107 -142 -194 -185 -55 -26 -156 -54 -165 -45 -2 2 1 12
7 23 14 26 14 107 1 132 -9 16 -3 29 34 75 47 57 61 98 54 165 -2 22 1 41 7
43 24 8 145 -28 210 -62z m-252 37 c11 -40 -13 -114 -49 -157 -33 -39 -39 -41
-89 -41 -69 0 -150 -30 -204 -76 -34 -29 -47 -35 -69 -29 -92 23 -80 128 22
207 93 72 213 115 327 117 50 1 57 -1 62 -21z m-167 -243 c-25 -19 -127 -57
-134 -51 -6 7 118 66 138 66 11 -1 10 -4 -4 -15z m89 -80 c-3 -22 -14 -53 -24
-70 -17 -29 -20 -30 -89 -29 -40 1 -86 7 -103 14 -47 20 -64 70 -23 70 28 0
139 40 179 65 37 22 41 23 53 7 9 -11 11 -31 7 -57z m-1085 -1174 c0 -12 -65
-53 -123 -79 -68 -30 -48 -9 41 43 85 50 82 49 82 36z m-150 -129 c0 -10 -141
-112 -188 -136 -42 -22 -48 -17 -22 17 11 14 20 29 20 34 0 8 22 19 130 67 65
29 60 28 60 18z m-160 -479 c-1 -14 -145 -201 -215 -279 -136 -151 -346 -311
-485 -369 -106 -44 -150 -55 -238 -55 -100 0 -171 21 -292 88 -105 59 -230
174 -230 214 0 35 52 78 138 113 37 15 81 33 97 41 17 7 49 17 70 23 22 5 70
19 108 29 37 11 67 18 67 15 0 -2 6 -1 12 3 7 5 19 9 28 9 8 1 42 8 75 16 33
7 65 14 70 14 6 1 25 5 43 9 18 4 65 12 105 16 93 12 203 29 282 46 22 4 49 8
60 9 11 1 27 4 35 8 8 3 42 10 75 16 76 12 101 18 120 28 20 11 75 15 75 6z
m-2912 -80 c-112 -203 -386 -591 -501 -710 -103 -106 -158 -143 -215 -143
-118 0 -119 178 -1 335 54 73 164 182 244 245 39 30 72 57 75 60 5 5 30 22
220 146 41 27 93 58 116 70 23 11 52 28 65 37 13 10 25 17 26 17 2 0 -11 -26
-29 -57z"/>
<path d="M5990 1988 c-19 -13 -40 -29 -46 -37 -9 -12 -18 -11 -58 9 -34 16
-58 21 -86 17 -66 -9 -93 -28 -124 -90 l-29 -57 18 -46 c34 -88 84 -126 205
-154 30 -7 87 -27 125 -45 83 -39 126 -91 148 -176 19 -76 40 -73 88 11 91
157 71 357 -52 505 -69 84 -125 103 -189 63z m93 -62 c42 -17 83 -66 116 -136
33 -71 37 -207 7 -284 l-18 -48 -15 29 c-43 90 -126 146 -275 189 -115 32
-153 55 -178 105 -24 47 -25 63 -3 99 31 52 97 65 156 30 19 -12 37 -30 40
-40 10 -37 45 -24 68 25 24 50 43 56 102 31z"/>
<path d="M5321 1961 c-7 -5 -21 -6 -31 -4 -10 3 -21 0 -24 -6 -10 -16 12 -123
27 -133 19 -12 24 -10 62 27 40 40 46 82 17 108 -21 19 -31 21 -51 8z m22 -66
c-7 -19 -33 -20 -33 -1 0 15 20 26 32 19 4 -2 5 -10 1 -18z"/>
<path d="M5200 1910 c-5 -10 -7 -26 -4 -34 4 -12 -6 -21 -41 -36 -70 -30 -44
-59 31 -35 20 6 23 2 29 -37 15 -98 18 -110 32 -115 20 -8 35 16 28 44 -4 18
4 26 55 51 l60 30 0 -46 c0 -30 8 -59 21 -81 19 -31 22 -33 36 -18 15 15 15
19 -2 56 -13 30 -16 54 -12 96 7 66 -1 69 -70 25 -49 -32 -97 -39 -106 -17 -3
8 -8 39 -12 70 -8 59 -27 80 -45 47z"/>
<path d="M5030 1885 c-20 -24 -9 -174 16 -216 11 -19 27 -34 35 -33 41 2 88
38 103 77 11 34 -4 37 -32 7 -59 -63 -90 -28 -91 102 -1 70 -10 88 -31 63z"/>
<path d="M4795 1883 c-11 -3 -23 -10 -27 -16 -9 -15 2 -78 19 -106 11 -17 12
-26 4 -34 -6 -6 -11 -20 -11 -30 0 -20 -2 -20 73 -1 20 5 24 -2 45 -60 15 -40
30 -66 38 -66 25 0 26 24 4 83 -17 44 -19 61 -10 77 14 26 -10 38 -46 21 -14
-6 -33 -11 -42 -11 -13 1 -10 6 11 23 32 27 47 88 27 112 -12 15 -45 18 -85 8z
m55 -50 c0 -5 -5 -15 -10 -23 -7 -11 -12 -12 -21 -3 -6 6 -8 16 -5 22 8 12 36
15 36 4z"/>
<path d="M4706 1855 c-3 -9 -6 -29 -6 -45 0 -23 -7 -30 -40 -44 -38 -15 -51
-38 -30 -51 5 -3 24 2 41 11 39 20 45 13 54 -70 8 -64 19 -96 35 -96 20 0 20
49 1 145 -11 55 -21 113 -23 129 -3 33 -22 45 -32 21z"/>
<path d="M4537 1793 c-22 -21 3 -213 28 -213 10 0 112 68 120 79 13 22 -25 23
-58 2 -19 -12 -39 -21 -45 -21 -6 0 -14 26 -17 58 -4 31 -8 65 -9 74 -3 22
-11 30 -19 21z"/>
<path d="M5817 1540 c-22 -18 -27 -30 -27 -65 0 -25 9 -61 20 -83 24 -47 37
-127 21 -136 -16 -10 -13 -36 5 -43 9 -3 26 5 42 19 15 14 52 33 82 43 63 20
100 41 100 56 0 11 -43 8 -85 -6 -19 -6 -21 1 -33 75 -7 45 -18 92 -24 103 -6
12 -14 29 -18 37 -11 23 -53 23 -83 0z m51 -47 c4 -24 -24 -51 -39 -36 -13 13
7 66 24 61 6 -3 13 -14 15 -25z m25 -80 c12 -43 17 -112 9 -117 -11 -6 -41
102 -34 122 6 18 20 15 25 -5z"/>
<path d="M5383 1485 c-3 -9 3 -43 14 -77 19 -56 19 -62 4 -78 -9 -9 -24 -27
-34 -39 -10 -12 -23 -21 -30 -18 -22 7 -18 35 7 61 29 28 31 39 15 85 -13 36
-17 37 -68 11 -42 -21 -54 -39 -41 -61 7 -11 13 -9 33 9 27 25 37 28 37 9 0
-8 -14 -26 -31 -41 -25 -22 -28 -30 -18 -42 15 -19 12 -22 -37 -30 -40 -6 -41
-5 -48 26 -3 18 -6 43 -6 56 0 17 -6 24 -19 24 -11 0 -21 -5 -23 -12 -2 -6 6
-75 19 -152 12 -78 23 -142 23 -143 0 -2 7 -3 15 -3 23 0 28 24 16 80 -9 42
-8 54 3 66 8 8 19 14 24 14 5 0 15 7 22 15 10 12 16 12 40 -6 26 -20 29 -20
59 -5 17 9 38 31 48 49 l17 32 6 -25 c3 -14 13 -26 22 -28 22 -4 32 31 18 59
-10 18 -8 25 14 48 14 15 26 32 26 39 0 15 -32 16 -48 0 -9 -9 -13 -7 -18 8
-30 84 -47 103 -61 69z"/>
<path d="M5547 1464 c-37 -20 -29 -40 14 -36 40 3 54 15 46 36 -8 20 -24 20
-60 0z"/>
<path d="M4674 1436 c-17 -8 -39 -25 -50 -38 -16 -20 -27 -24 -78 -23 -52 0
-61 -3 -78 -26 -17 -22 -19 -35 -13 -79 6 -42 21 -73 72 -149 87 -128 97 -138
178 -177 73 -36 123 -42 165 -21 35 18 39 47 6 47 -17 0 -34 11 -53 36 -38 50
-43 133 -14 237 12 43 21 86 21 98 0 25 -28 80 -49 96 -21 16 -68 16 -107 -1z
m95 -68 c14 -24 13 -36 -13 -137 -26 -101 -28 -116 -17 -168 6 -31 18 -65 28
-75 27 -30 10 -30 -53 2 -51 25 -69 43 -116 108 -66 91 -95 145 -104 189 -5
26 -2 33 17 43 19 11 28 10 55 -5 18 -10 34 -27 36 -39 2 -13 10 -21 23 -21
17 0 20 7 21 49 1 39 6 53 24 68 33 27 80 20 99 -14z"/>
<path d="M5710 1436 c-7 -9 -19 -15 -27 -12 -23 9 -26 -20 -9 -85 18 -73 21
-77 46 -61 17 11 20 10 20 -8 0 -23 28 -27 36 -5 9 22 -18 145 -36 168 -15 18
-17 18 -30 3z"/>
<path d="M5562 1387 c-33 -34 -39 -51 -22 -62 13 -8 93 72 85 85 -11 18 -31
10 -63 -23z"/>
<path d="M5056 1375 c-38 -38 -71 -101 -101 -189 -25 -77 -27 -106 -5 -106 12
0 25 28 40 88 13 50 26 52 65 12 32 -33 50 -38 59 -15 4 11 -10 32 -40 60
l-46 45 22 35 c12 19 30 40 41 45 22 12 26 50 4 50 -8 0 -25 -11 -39 -25z"/>
<path d="M5595 1310 c-19 -37 -19 -51 3 -89 20 -36 26 -37 52 -11 19 19 25 42
20 85 -5 51 -51 61 -75 15z"/>
<path d="M5468 1223 c-34 -39 -39 -61 -24 -98 18 -42 46 -46 75 -10 42 54 35
125 -13 125 -13 0 -30 -8 -38 -17z m32 -53 c0 -16 -4 -30 -10 -30 -5 0 -10 14
-10 30 0 17 5 30 10 30 6 0 10 -13 10 -30z"/>
</g>
</svg>
