<?xml version="1.0" standalone="no"?>
<!DOCTYPE svg PUBLIC "-//W3C//DTD SVG 20010904//EN"
 "http://www.w3.org/TR/2001/REC-SVG-20010904/DTD/svg10.dtd">
<svg version="1.0" xmlns="http://www.w3.org/2000/svg"
 width="736.000000pt" height="552.000000pt" viewBox="0 0 736.000000 552.000000"
 preserveAspectRatio="xMidYMid meet">

<g transform="translate(0.000000,552.000000) scale(0.100000,-0.100000)"
fill="#FFFFFF" stroke="none">
<path d="M3540 4551 c-5 -21 -24 -72 -41 -112 -110 -266 -299 -871 -535 -1712
-23 -83 -25 -100 -13 -108 23 -15 44 -5 47 21 2 14 16 70 32 125 15 55 45 163
65 240 20 77 47 176 60 220 13 44 40 136 60 205 115 394 256 808 378 1113 10
23 9 30 -3 37 -27 17 -39 10 -50 -29z"/>
<path d="M4516 4097 c-111 -167 -216 -350 -246 -427 -12 -30 -28 -69 -36 -87
-12 -28 -11 -34 3 -48 27 -27 47 -14 59 40 7 28 19 70 28 95 15 41 31 72 111
215 43 77 94 155 142 218 l45 57 36 -29 c20 -16 75 -72 122 -125 82 -93 114
-113 127 -81 4 11 -19 42 -68 93 -41 42 -101 107 -134 143 -34 36 -68 68 -78
72 -13 5 -37 -25 -111 -136z"/>
<path d="M1487 4213 c-3 -10 -5 -44 -5 -76 -1 -31 -8 -83 -16 -115 -8 -31 -24
-113 -36 -182 -24 -145 -46 -266 -66 -365 -15 -76 -32 -202 -41 -303 -3 -37
-11 -66 -18 -69 -7 -2 -31 5 -53 16 -60 31 -189 72 -253 81 -73 10 -143 -3
-193 -38 -51 -35 -120 -129 -141 -191 -22 -67 -22 -178 0 -224 31 -66 135 -95
240 -66 69 19 220 99 301 160 43 32 80 57 81 55 2 -2 -1 -43 -7 -92 -5 -49
-14 -145 -20 -214 -5 -69 -14 -183 -20 -255 -5 -71 -18 -160 -27 -198 -15 -60
-15 -69 -2 -83 43 -42 52 4 79 391 11 156 26 337 36 435 6 54 11 70 36 93 16
15 33 27 38 27 5 0 74 -30 152 -66 488 -226 962 -378 1373 -438 239 -35 318
-41 585 -40 278 0 291 1 551 48 117 21 336 78 445 116 49 17 96 33 104 36 10
3 27 -11 49 -41 113 -157 353 -338 578 -435 54 -23 131 -57 172 -76 80 -37
111 -42 111 -19 0 17 -51 42 -234 115 -114 45 -274 137 -367 209 -75 59 -189
172 -228 226 -29 41 -31 46 -14 51 84 28 404 205 472 261 235 194 344 390 292
527 -36 97 -111 145 -222 146 -72 0 -173 -26 -227 -60 -18 -11 -34 -20 -36
-20 -3 0 -8 14 -11 31 -9 39 -75 112 -130 145 -125 73 -242 63 -344 -27 -125
-113 -155 -326 -80 -574 26 -85 100 -245 157 -339 23 -37 42 -72 42 -76 0 -9
-127 -55 -226 -81 -41 -10 -109 -28 -151 -39 -242 -63 -535 -95 -799 -86 -355
11 -675 61 -994 154 l-125 37 65 6 c148 13 354 119 460 236 58 65 121 165 146
234 16 44 16 49 0 100 -66 201 -255 379 -390 367 -91 -8 -169 -44 -239 -112
-114 -108 -242 -305 -268 -409 -34 -140 -6 -260 82 -342 26 -25 46 -45 44 -45
-43 0 -700 273 -752 313 -10 7 5 28 53 81 74 78 238 287 302 382 92 138 272
461 272 490 0 29 -37 39 -50 14 -6 -10 -10 -26 -10 -34 0 -47 -220 -414 -358
-599 -97 -130 -127 -165 -220 -259 -50 -52 -50 -52 -71 -39 -12 7 -10 36 9
182 22 174 72 467 109 634 56 258 63 297 57 320 -7 29 -42 34 -49 8z m3250
-508 c87 -26 178 -123 171 -182 -4 -33 24 -54 50 -35 9 7 51 29 92 50 69 34
82 37 161 37 76 0 90 -3 126 -27 171 -113 29 -410 -299 -625 -99 -65 -331
-186 -380 -198 -24 -6 -30 -2 -58 42 -50 77 -136 261 -163 348 -51 164 -56
272 -17 405 24 81 75 144 144 176 59 28 103 30 173 9z m-2031 -167 c57 -34
104 -88 166 -193 53 -90 64 -126 50 -172 -16 -55 -104 -183 -165 -240 -85 -81
-266 -175 -374 -195 -194 -36 -330 149 -267 363 45 151 233 404 330 445 18 7
53 12 78 10 36 -3 46 0 46 12 0 24 74 8 136 -30z m-1651 -392 c66 -18 205 -72
231 -90 16 -11 19 -22 16 -51 -4 -30 -15 -45 -67 -88 -139 -115 -320 -201
-422 -202 -55 0 -66 3 -90 28 -26 26 -28 33 -28 110 0 71 4 90 30 141 37 73
99 138 145 153 49 15 126 15 185 -1z"/>
<path d="M3912 3791 c-81 -45 -451 -285 -462 -299 -3 -4 -25 -23 -50 -42 -25
-19 -66 -54 -92 -78 -26 -25 -56 -51 -68 -59 -11 -8 -20 -20 -20 -27 0 -7 -11
-19 -25 -26 -30 -16 -32 -45 -5 -60 17 -9 24 -6 44 15 13 14 28 25 33 25 6 0
75 -52 154 -116 225 -181 321 -240 534 -331 71 -31 138 -62 147 -70 22 -20 52
-13 56 13 3 23 3 24 -163 88 -137 54 -291 136 -379 204 -52 39 -281 226 -310
253 -15 13 43 68 174 168 212 161 438 299 458 279 7 -7 23 1 54 30 43 41 43
41 23 60 -20 20 -21 19 -103 -27z"/>
<path d="M5480 3797 c-117 -35 -192 -85 -169 -114 13 -15 45 -17 54 -3 4 6 38
26 76 45 80 41 198 62 264 47 l40 -8 -3 -45 c-2 -24 -23 -143 -47 -264 -70
-350 -76 -405 -41 -405 13 0 44 112 66 240 24 146 42 240 55 290 26 105 38
210 25 226 -21 24 -227 18 -320 -9z"/>
<path d="M6708 1401 c-39 -25 -49 -27 -64 -16 -58 39 -144 25 -197 -34 -44
-48 -60 -99 -55 -165 6 -75 50 -133 148 -197 52 -34 80 -59 80 -71 0 -27 35
-22 48 6 9 19 8 27 -4 37 -12 10 -10 14 14 29 95 58 236 295 218 366 -20 77
-106 97 -188 45z m130 -54 c6 -66 -61 -186 -170 -306 l-48 -53 -37 23 c-73 44
-102 71 -122 113 -42 86 -18 181 55 223 48 28 65 28 95 4 23 -19 23 -20 7 -55
-22 -45 -14 -68 20 -64 20 2 28 11 34 38 20 81 65 123 128 118 33 -3 35 -5 38
-41z"/>
<path d="M4754 1378 c-50 -26 -78 -53 -70 -67 11 -17 35 -13 64 10 24 19 27
19 30 4 7 -33 -8 -63 -37 -75 -50 -20 -59 -39 -52 -97 14 -99 63 -119 135 -53
35 33 45 37 50 25 3 -10 15 -15 28 -13 21 3 23 8 20 54 l-4 50 42 17 c52 20
49 42 -6 42 -39 0 -39 0 -40 41 -1 49 -9 64 -35 64 -22 0 -21 6 -19 -115 l1
-90 -48 -38 c-44 -35 -48 -37 -60 -21 -7 10 -13 30 -13 46 0 22 8 32 40 48 23
12 43 26 45 33 8 21 13 125 6 134 -13 20 -41 21 -77 1z"/>
<path d="M4437 1384 c-4 -4 -5 -16 -2 -28 3 -12 9 -106 15 -211 9 -181 34
-333 57 -356 5 -5 16 -4 27 4 15 11 15 17 6 42 -11 27 -40 182 -40 211 0 6 22
21 50 34 50 24 98 65 87 76 -3 3 -33 -7 -66 -22 -34 -15 -64 -25 -66 -22 -3 3
-8 61 -11 129 -4 68 -11 130 -17 137 -10 13 -30 16 -40 6z"/>
<path d="M5665 1366 c-91 -28 -129 -79 -101 -134 19 -36 27 -42 86 -63 65 -23
62 -39 -15 -77 -68 -33 -77 -45 -47 -61 14 -8 32 -2 77 25 32 20 85 49 117 65
66 33 77 55 23 45 l-36 -7 14 33 c15 36 21 136 9 154 -10 16 -48 34 -69 33
-10 0 -36 -6 -58 -13z m80 -37 c12 -19 -5 -60 -30 -71 -14 -6 -25 -17 -25 -24
0 -6 -7 -15 -16 -18 -51 -20 -82 38 -43 80 32 34 101 54 114 33z"/>
<path d="M5334 1293 c4 -21 9 -117 12 -213 3 -96 10 -179 14 -184 6 -5 15 -4
25 4 11 9 15 34 15 105 0 80 3 96 22 120 20 26 22 26 29 9 3 -10 4 -56 2 -102
-5 -91 5 -119 37 -102 15 8 17 26 18 127 2 168 -8 247 -31 251 -38 7 -46 -4
-35 -50 8 -39 7 -45 -14 -62 l-23 -18 -10 73 c-10 71 -11 74 -39 77 -28 4 -29
3 -22 -35z"/>
<path d="M5163 1290 c-65 -30 -75 -42 -46 -58 11 -7 30 -3 64 14 26 13 54 24
62 24 19 0 41 26 32 40 -11 17 -48 11 -112 -20z"/>
<path d="M4327 1283 c-4 -3 -7 -21 -7 -40 0 -45 -34 -144 -76 -221 -19 -34
-34 -69 -34 -77 0 -30 26 -14 58 36 32 48 35 51 67 45 40 -8 87 2 82 17 -2 6
-21 16 -43 22 -44 13 -43 6 -12 123 18 71 19 85 7 93 -17 10 -33 11 -42 2z"/>
<path d="M5192 1220 c-66 -31 -86 -55 -60 -74 14 -10 14 -15 2 -36 -30 -56 -5
-104 58 -113 34 -5 41 -2 63 27 46 61 42 139 -10 152 -24 6 -24 7 17 28 96 49
33 64 -70 16z m41 -119 c-1 -38 -18 -61 -44 -61 -27 0 -25 47 3 77 28 30 43
24 41 -16z"/>
<path d="M6088 1159 c-26 -14 -71 -97 -64 -115 10 -26 49 -13 57 19 9 33 27
57 43 57 6 0 33 -18 60 -40 26 -22 57 -40 68 -40 24 0 82 56 73 70 -4 6 -17 3
-35 -10 -34 -24 -47 -20 -99 34 -36 37 -69 45 -103 25z"/>
<path d="M5708 1065 c-33 -18 -52 -72 -39 -107 11 -30 57 -68 81 -68 10 0 34
18 54 40 64 71 43 151 -39 150 -16 -1 -42 -7 -57 -15z m80 -56 c4 -33 -27 -73
-51 -64 -26 11 -33 52 -11 76 25 27 58 21 62 -12z"/>
<path d="M4803 1036 c-52 -44 -70 -149 -32 -187 17 -17 29 -20 56 -16 44 8 71
31 94 82 26 55 24 91 -6 120 -31 32 -75 32 -112 1z m78 -37 c16 -30 -3 -88
-36 -112 -34 -24 -45 -14 -45 40 0 72 55 121 81 72z"/>
</g>
</svg>
