<?xml version="1.0" standalone="no"?>
<!DOCTYPE svg PUBLIC "-//W3C//DTD SVG 20010904//EN"
 "http://www.w3.org/TR/2001/REC-SVG-20010904/DTD/svg10.dtd">
<svg version="1.0" xmlns="http://www.w3.org/2000/svg"
 width="736.000000pt" height="552.000000pt" viewBox="0 0 736.000000 552.000000"
 preserveAspectRatio="xMidYMid meet">

<g transform="translate(0.000000,552.000000) scale(0.100000,-0.100000)"
fill="#FFFFFF" stroke="none">
<path d="M2580 4710 c-33 -21 -30 -325 4 -388 13 -24 15 -11 15 143 0 100 4
183 11 200 17 45 3 66 -30 45z"/>
<path d="M2991 4711 c-20 -13 -71 -252 -71 -333 0 -63 16 -43 38 50 46 185 65
248 78 263 8 8 14 19 14 22 0 10 -43 8 -59 -2z"/>
<path d="M3400 4696 c0 -9 -41 -96 -91 -195 -71 -141 -90 -186 -87 -212 l3
-34 18 39 c9 21 57 111 107 200 97 175 109 209 73 214 -16 2 -23 -2 -23 -12z"/>
<path d="M2115 4190 c-298 -55 -530 -169 -722 -353 -202 -194 -332 -433 -378
-694 -24 -134 -21 -361 5 -507 59 -328 158 -526 379 -760 191 -203 345 -322
515 -401 104 -48 163 -65 326 -95 63 -12 149 -31 190 -42 108 -30 117 -31 124
-19 11 17 -30 29 -241 71 -105 22 -217 47 -250 56 -205 60 -444 231 -660 473
-166 186 -266 370 -318 582 -111 456 -48 840 190 1160 240 322 645 519 1068
519 339 0 497 -139 497 -438 0 -174 -50 -367 -140 -546 -69 -135 -76 -168 -35
-152 9 3 43 61 75 128 85 180 170 290 310 402 196 157 418 239 645 240 105 0
130 -4 203 -28 206 -69 369 -248 432 -476 43 -158 36 -288 -25 -473 -34 -103
-45 -127 -104 -227 -60 -102 -171 -240 -301 -373 -101 -104 -240 -233 -229
-212 3 6 40 66 82 135 41 69 83 148 92 176 15 47 15 55 1 82 -67 129 -313 118
-554 -27 -222 -132 -391 -402 -392 -626 0 -69 25 -120 66 -135 68 -26 195 -5
309 52 57 29 219 134 277 179 24 19 28 20 47 7 12 -8 33 -13 46 -10 14 2 83
56 153 119 70 63 169 146 219 184 153 114 357 214 425 207 31 -3 33 -5 36 -46
2 -24 -6 -91 -17 -149 -25 -128 -26 -186 -4 -224 22 -37 89 -64 138 -56 46 8
146 55 233 111 222 142 327 195 434 221 92 22 107 35 42 35 -96 0 -212 -50
-399 -169 -71 -46 -156 -97 -189 -115 -195 -104 -269 -52 -221 156 41 181 39
232 -10 264 -36 24 -102 8 -233 -57 -162 -79 -256 -146 -467 -330 -110 -95
-152 -125 -162 -115 -12 12 11 38 126 145 170 158 292 289 394 424 48 64 87
119 87 122 0 4 9 20 21 36 27 39 92 191 108 254 7 28 17 68 23 90 16 63 13
252 -6 321 -79 280 -260 473 -507 541 -94 26 -277 23 -388 -6 -238 -62 -444
-186 -593 -357 -32 -36 -58 -63 -58 -61 0 2 9 46 20 98 71 344 7 552 -201 649
-131 61 -337 76 -534 40z m1603 -1721 c118 -25 121 -91 12 -265 -39 -62 -91
-151 -116 -198 -50 -94 -91 -133 -255 -240 -195 -126 -366 -157 -411 -73 -32
61 2 232 73 365 107 201 312 362 514 405 86 19 120 20 183 6z"/>
<path d="M4543 2603 c-46 -10 -73 -20 -73 -29 0 -23 35 -25 91 -5 80 28 89 32
89 42 0 12 -19 10 -107 -8z"/>
<path d="M5977 1693 c-4 -3 -7 -20 -7 -37 0 -24 -8 -36 -33 -53 -40 -28 -47
-28 -47 -4 0 10 11 26 25 35 40 27 31 39 -22 31 -27 -4 -52 -10 -56 -15 -11
-10 10 -85 29 -105 23 -22 42 -19 76 16 47 46 59 23 25 -46 -15 -31 -27 -66
-27 -78 0 -73 85 -91 128 -27 19 29 22 45 20 100 -3 62 -4 65 -30 68 -53 6
-46 61 8 62 11 0 24 3 27 7 12 11 -14 33 -39 33 -12 0 -26 5 -29 10 -7 11 -38
13 -48 3z m69 -218 c-7 -45 -27 -72 -46 -60 -16 10 -12 53 8 72 11 10 22 27
27 38 12 31 18 1 11 -50z"/>
<path d="M5471 1661 c-11 -7 -12 -22 -7 -66 10 -89 41 -130 48 -63 2 25 9 34
27 38 36 8 37 27 1 35 -26 6 -30 11 -28 33 3 28 -16 39 -41 23z"/>
<path d="M4911 1614 c-20 -25 -20 -37 -5 -96 3 -10 -3 -19 -15 -23 -27 -8 -33
-30 -25 -97 6 -50 11 -62 30 -70 19 -9 28 -8 41 4 24 21 78 38 100 32 15 -4
21 4 31 43 l13 48 53 0 c50 0 54 -2 64 -28 6 -17 17 -27 24 -25 12 5 13 26 3
74 -4 16 3 22 35 31 34 8 40 8 45 -6 3 -9 18 -32 34 -51 26 -30 31 -33 46 -20
9 8 22 26 28 40 11 25 11 24 15 -12 2 -27 12 -45 33 -63 36 -30 60 -22 85 28
16 30 31 46 44 47 3 0 11 -13 17 -30 9 -24 17 -30 42 -30 24 0 39 10 72 50
l42 50 13 -37 c14 -41 37 -63 66 -63 24 0 23 14 -3 32 -17 11 -23 28 -28 78
-5 56 -9 65 -26 65 -14 0 -21 -8 -23 -27 -2 -19 -18 -38 -51 -63 -27 -19 -52
-35 -56 -35 -4 0 -5 21 -3 48 3 44 2 47 -22 47 -21 0 -26 -6 -31 -35 -4 -19
-7 -26 -8 -15 -3 49 -51 54 -51 5 0 -27 -15 -40 -46 -40 -8 0 -14 7 -14 15 0
8 -8 15 -18 15 -10 0 -24 9 -32 21 -8 12 -24 25 -35 29 -18 7 -16 9 13 17 18
4 32 13 30 18 -6 20 -140 -5 -170 -32 -23 -20 -59 -1 -55 30 2 18 -2 22 -22
19 -34 -3 -34 -5 -23 -57 8 -39 7 -47 -8 -55 -23 -12 -70 22 -70 51 0 19 -17
25 -35 11 -5 -4 -11 -32 -12 -63 -1 -57 -15 -99 -33 -99 -5 0 -4 11 2 26 11
23 10 28 -7 40 -10 8 -27 12 -37 8 -19 -6 -23 5 -32 84 -5 48 -6 48 61 21 24
-10 36 -10 44 -2 8 8 3 16 -22 29 -19 9 -38 23 -42 30 -13 22 -44 16 -66 -12z
m479 -109 c0 -8 -4 -15 -10 -15 -5 0 -10 7 -10 15 0 8 5 15 10 15 6 0 10 -7
10 -15z m130 -75 c0 -5 -7 -10 -16 -10 -8 0 -12 5 -9 10 3 6 10 10 16 10 5 0
9 -4 9 -10z m-540 -15 c0 -16 -30 -35 -54 -35 -24 0 -19 29 7 40 33 13 47 12
47 -5z"/>
<path d="M6221 1621 c-22 -17 -23 -23 -17 -67 3 -27 15 -60 25 -74 17 -22 25
-25 72 -22 67 4 104 26 129 78 16 33 18 47 10 68 -13 35 -34 42 -77 27 -26
-10 -38 -10 -46 -2 -17 17 -69 13 -96 -8z m69 -46 c5 -14 14 -25 19 -25 5 0
23 11 39 25 40 33 56 33 47 -2 -12 -51 -31 -70 -77 -76 -24 -3 -48 -1 -55 5
-20 16 -28 79 -12 89 22 14 29 11 39 -16z"/>
<path d="M5273 1615 c-8 -24 0 -27 56 -19 33 4 51 11 51 20 0 21 -99 19 -107
-1z"/>
<path d="M4470 1599 c-7 -13 -10 -40 -6 -65 4 -33 1 -48 -14 -66 -15 -18 -22
-21 -37 -12 -10 6 -22 20 -28 32 -5 12 -13 22 -17 22 -19 0 -6 18 17 24 28 7
34 26 8 26 -39 0 -63 -13 -69 -36 -5 -20 -12 -24 -44 -24 -59 0 -90 15 -83 39
3 12 11 21 19 21 15 0 29 18 20 27 -3 3 -19 0 -36 -7 -35 -14 -39 -42 -15
-109 12 -35 12 -43 1 -47 -30 -11 -27 -88 6 -176 12 -32 43 -45 63 -28 31 25
47 144 23 168 -7 7 -20 12 -30 12 -10 0 -18 5 -18 10 0 6 4 10 8 10 5 0 17 7
28 15 18 14 17 15 -15 12 -19 -1 -36 3 -38 9 -5 13 28 24 75 24 l34 0 -7 -60
c-8 -73 9 -83 26 -15 12 48 19 54 39 30 17 -21 57 -19 77 4 9 11 20 18 25 15
5 -3 4 -11 -2 -18 -5 -7 -13 -46 -16 -87 -6 -66 -4 -76 14 -92 11 -10 28 -17
38 -15 28 5 56 52 62 104 5 43 3 49 -24 70 -27 23 -28 23 -9 43 18 21 18 21
-9 21 -42 0 -30 32 17 43 51 12 47 27 -9 27 -45 0 -45 0 -42 32 4 37 -16 48
-32 17z m80 -248 c0 -16 -9 -39 -19 -52 -18 -22 -20 -22 -26 -6 -4 9 -4 37 -1
62 7 41 9 44 27 35 12 -7 19 -21 19 -39z m-284 -3 c10 -15 -17 -98 -32 -98
-20 0 -39 72 -25 98 11 20 44 21 57 0z"/>
<path d="M3955 1580 c-38 -16 -62 -30 -53 -30 9 0 50 13 90 30 40 16 64 29 53
29 -11 0 -51 -13 -90 -29z"/>
<path d="M4777 1586 c-39 -14 -77 -42 -77 -58 0 -15 31 -8 57 12 54 42 70 8
33 -65 -25 -48 -25 -55 -1 -55 21 0 61 92 61 140 0 22 -18 44 -33 40 -1 -1
-19 -7 -40 -14z"/>
<path d="M4055 1529 c-63 -27 -94 -36 -132 -38 -7 -1 -13 -6 -13 -12 0 -19 72
-2 154 37 70 34 87 44 69 44 -5 0 -39 -14 -78 -31z"/>
<path d="M4022 1460 c-26 -11 -43 -47 -32 -70 29 -62 38 -75 57 -78 25 -4 53
32 53 68 0 30 -8 43 -35 58 -17 10 -18 11 -2 12 9 0 17 5 17 10 0 12 -27 12
-58 0z m46 -79 c6 -37 -14 -47 -33 -18 -9 15 -14 31 -10 37 11 19 40 6 43 -19z"/>
<path d="M5545 1019 c-12 -19 6 -142 27 -183 29 -57 40 -34 28 57 -6 42 -10
82 -9 89 4 33 -2 48 -20 48 -11 0 -23 -5 -26 -11z"/>
<path d="M5318 983 c-14 -4 -16 -12 -11 -54 5 -45 4 -49 -16 -49 -16 0 -21 6
-21 25 0 28 -18 38 -87 49 -53 8 -59 -2 -42 -71 10 -43 18 -57 37 -64 18 -7
29 -6 41 5 9 8 35 17 57 20 37 6 43 4 58 -19 25 -38 40 -32 33 14 -3 29 -1 41
9 45 8 3 14 1 14 -4 0 -17 32 -40 55 -40 34 0 61 57 56 118 -2 23 -111 11
-111 -13 0 -14 -25 -27 -34 -18 -3 4 -6 17 -6 29 0 26 -8 32 -32 27z m142 -72
c0 -12 -20 -25 -27 -18 -7 7 6 27 18 27 5 0 9 -4 9 -9z m-222 -18 c2 -8 -6
-13 -22 -13 -26 0 -40 12 -29 24 11 11 46 2 51 -11z"/>
<path d="M5738 973 c-48 -14 -63 -38 -34 -49 17 -6 136 44 136 57 0 13 -48 9
-102 -8z"/>
<path d="M4970 880 c-36 -11 -79 -19 -96 -20 -38 0 -61 -22 -41 -38 9 -8 25
-8 53 -1 59 15 188 61 199 70 16 15 -46 9 -115 -11z"/>
</g>
</svg>
