<svg version="1.0" xmlns="http://www.w3.org/2000/svg"
    width="736.000000pt" height="552.000000pt" viewBox="0 0 736.000000 552.000000"
    preserveAspectRatio="xMidYMid meet">
    <defs />

    <g transform="translate(0.000000,552.000000) scale(0.100000,-0.100000)"
        fill="#FFFFFF">
        <path class="path1"
            d="M5825 4313 c-16 -8 -46 -31 -66 -49 l-35 -34 -29 30 c-21 21 -38 30
-62 30 -42 0 -62 -30 -70 -102 l-5 -54 -50 0 c-41 1 -53 -3 -69 -23 -23 -28
-24 -79 -3 -124 16 -33 16 -34 -14 -64 -52 -51 -54 -113 -7 -158 l25 -22 -62
-56 c-35 -31 -72 -64 -84 -74 -12 -10 -70 -63 -130 -119 -60 -55 -129 -118
-154 -140 -24 -21 -54 -47 -65 -58 -53 -49 -218 -176 -304 -233 -117 -79 -284
-162 -411 -204 -84 -28 -104 -31 -185 -27 -74 3 -102 9 -148 31 -65 32 -97 68
-97 107 0 21 11 34 55 65 31 21 83 67 115 104 61 67 83 113 95 201 5 38 3 49
-15 68 -12 13 -29 21 -38 18 -9 -3 -36 -10 -60 -16 -97 -25 -177 -146 -216
-326 -6 -27 -17 -36 -74 -62 -104 -46 -202 -72 -335 -87 -68 -8 -147 -19 -176
-25 -66 -12 -101 -13 -101 -1 0 12 58 34 175 65 129 35 333 104 363 123 151
96 224 301 139 391 -70 75 -157 83 -258 25 -3 -2 -13 14 -22 35 -25 57 -59 84
-118 93 -96 15 -181 -20 -274 -115 -66 -67 -159 -237 -195 -355 -28 -93 -75
-166 -126 -192 -40 -22 -43 -22 -69 -5 l-27 18 40 34 c60 51 102 122 102 173
0 36 -6 49 -34 77 -21 21 -44 34 -59 34 -63 0 -138 -123 -138 -226 0 -50 -3
-56 -27 -65 -38 -14 -71 -3 -78 27 -4 14 -1 52 6 85 12 56 12 62 -7 87 -38 51
-83 74 -135 69 -87 -8 -154 -72 -208 -197 -30 -69 -33 -159 -8 -187 17 -19 14
-22 -93 -109 -61 -49 -123 -98 -138 -109 -14 -11 -61 -48 -104 -83 -76 -60
-80 -62 -100 -47 -61 44 -161 107 -242 150 -137 73 -197 118 -243 179 -55 73
-64 97 -64 179 1 82 22 157 69 252 60 120 147 207 276 276 56 30 65 31 171 32
132 0 173 -14 217 -77 51 -72 64 -81 75 -51 16 41 -52 125 -131 161 -72 33
-241 44 -313 20 -51 -17 -148 -78 -227 -142 -96 -78 -201 -287 -212 -423 -8
-94 13 -159 80 -246 51 -67 123 -130 177 -157 78 -39 270 -153 300 -178 l35
-30 -22 -19 c-49 -42 -122 -103 -209 -175 -50 -41 -131 -112 -180 -158 -49
-46 -129 -119 -178 -163 -49 -44 -101 -91 -115 -105 -15 -14 -89 -82 -166
-152 -153 -137 -159 -144 -264 -273 -110 -134 -124 -173 -71 -200 78 -40 270
-1 573 116 423 165 731 378 828 575 28 56 34 80 37 153 6 128 -21 215 -112
353 l-17 26 43 35 c180 149 423 336 470 364 31 18 76 55 99 81 l44 49 31 -34
c28 -29 37 -33 85 -33 30 0 61 4 68 9 11 7 24 1 48 -19 110 -97 245 -10 310
200 59 195 175 365 282 416 53 26 125 30 156 10 46 -30 30 -96 -48 -190 -35
-42 -39 -52 -31 -75 7 -19 16 -26 35 -26 20 0 39 17 88 78 93 117 167 155 237
121 24 -12 43 -30 48 -46 21 -60 -45 -180 -128 -232 -78 -50 -262 -116 -406
-147 -114 -24 -220 -84 -220 -124 0 -33 27 -62 74 -80 42 -16 51 -16 143 -1
130 22 206 34 273 42 66 8 160 37 280 88 12 5 21 -4 33 -33 24 -54 93 -114
163 -142 67 -26 217 -35 294 -18 90 20 362 143 430 193 19 15 56 41 82 59 121
83 288 224 472 398 116 110 245 228 319 291 52 46 57 48 57 26 0 -34 36 -87
65 -94 26 -6 79 -2 105 10 11 4 20 -6 33 -38 30 -73 88 -84 125 -23 20 32 52
142 52 178 0 16 7 19 41 19 56 0 114 18 138 44 34 36 35 66 4 128 l-29 56 28
31 c66 74 -1 170 -112 159 -34 -3 -40 -1 -40 15 0 33 -30 84 -56 96 -33 15
-53 13 -89 -6z m75 -73 c0 -16 -38 -88 -72 -138 l-29 -43 -52 6 c-78 9 -94 14
-111 31 -20 20 -21 84 -1 110 15 19 15 19 35 -5 11 -13 20 -38 20 -55 0 -36
15 -56 42 -56 12 0 21 13 29 42 14 53 76 118 113 118 14 0 26 -5 26 -10z m180
-126 c0 -20 -44 -45 -90 -51 -52 -7 -69 -33 -45 -69 13 -21 21 -24 50 -18 28
5 38 2 59 -20 15 -14 26 -35 26 -46 0 -39 -114 -67 -150 -37 -8 7 -30 34 -48
61 l-33 48 25 37 c37 55 84 100 109 106 69 14 97 11 97 -11z m-466 -74 c78
-44 78 -70 -1 -144 -114 -106 -121 -110 -150 -95 -14 8 -28 20 -31 27 -9 25
22 63 68 84 72 33 77 51 20 74 -44 18 -62 53 -39 80 18 22 63 13 133 -26z
m194 -107 c11 -16 32 -53 47 -83 23 -45 26 -63 22 -105 -5 -52 -34 -125 -49
-125 -5 0 -16 17 -25 37 -13 31 -13 46 -4 87 10 41 9 52 -3 65 -21 20 -42 1
-58 -51 -11 -36 -47 -68 -77 -68 -20 0 -41 33 -41 65 0 26 10 46 45 85 25 28
45 56 45 62 0 18 42 58 61 58 10 0 26 -12 37 -27z m-1820 -635 c-10 -45 -22
-61 -101 -137 -63 -59 -71 -62 -62 -20 14 67 67 151 114 180 24 16 47 26 51
24 5 -3 4 -24 -2 -47z m-1277 -70 c3 -29 -5 -44 -44 -90 -46 -55 -58 -49 -32
15 24 62 73 109 76 75z m-336 -18 c3 -5 0 -29 -6 -52 -10 -33 -34 -65 -105
-135 -51 -51 -100 -93 -110 -93 -27 0 -12 77 32 167 34 67 45 81 84 101 46 23
95 29 105 12z m-635 -875 c39 -78 55 -174 41 -252 -18 -93 -57 -159 -149 -249
-181 -177 -450 -326 -832 -461 -122 -43 -303 -83 -316 -70 -11 11 67 116 156
210 145 154 794 737 995 894 l40 31 17 -21 c10 -12 31 -49 48 -82z" />
        <path class="path1"
            d="M4090 3944 c-19 -8 -47 -27 -62 -41 -26 -25 -26 -25 -37 -4 -13 23
-61 51 -89 51 -10 0 -33 -15 -51 -32 -31 -31 -33 -36 -28 -84 5 -51 33 -118
67 -161 35 -45 103 -94 113 -84 8 8 18 4 34 -11 18 -17 28 -20 40 -12 26 16
144 254 150 301 11 84 -46 116 -137 77z m60 -107 c-23 -61 -85 -162 -119 -191
-21 -19 -22 -19 -57 15 -36 34 -94 139 -94 170 0 9 9 27 19 40 19 23 20 23 38
6 13 -13 18 -31 17 -67 -2 -37 3 -53 18 -67 19 -17 21 -17 39 6 10 13 19 30
19 38 0 28 41 73 88 97 26 13 48 21 50 16 1 -4 -7 -32 -18 -63z" />
        <path class="path1"
            d="M6165 2674 c-53 -19 -66 -37 -54 -76 4 -17 15 -38 23 -47 8 -9 24
-43 37 -76 12 -33 27 -67 34 -75 7 -8 15 -24 17 -35 2 -11 13 -21 25 -23 24
-4 173 62 185 81 22 35 -11 48 -66 27 -25 -9 -26 -7 -45 58 -10 37 -22 78 -25
92 -7 31 -14 40 -50 68 -33 25 -29 25 -81 6z m42 -60 c-3 -3 -12 -4 -19 -1 -8
3 -5 6 6 6 11 1 17 -2 13 -5z m62 -120 c18 -51 21 -68 12 -77 -16 -16 -35 9
-57 76 -14 41 -14 51 -3 58 22 14 23 13 48 -57z" />
        <path class="path1"
            d="M5986 2585 c-3 -9 3 -34 14 -55 11 -22 27 -72 35 -112 17 -78 39
-122 58 -115 27 9 -8 202 -46 259 -25 37 -51 47 -61 23z" />
        <path class="path1"
            d="M5907 2554 c-4 -4 -7 -20 -7 -35 0 -24 -5 -30 -40 -39 -44 -12 -53
-36 -24 -64 13 -14 19 -14 49 -1 39 16 37 18 65 -57 22 -60 44 -78 59 -49 13
24 -57 245 -79 249 -9 1 -19 0 -23 -4z" />
        <path class="path1"
            d="M5729 2473 c0 -32 -2 -67 -4 -78 -14 -89 -14 -132 1 -153 8 -12 24
-22 35 -22 16 0 20 6 19 28 -1 15 -2 40 -1 56 l1 30 33 -32 c39 -38 67 -42 67
-9 0 14 -18 40 -45 67 -34 34 -45 52 -45 76 0 49 -19 94 -41 94 -16 0 -19 -8
-20 -57z" />
        <path class="path1"
            d="M5554 2505 c-7 -19 50 -224 77 -277 13 -25 26 -38 39 -38 24 0 26 33
5 70 -21 37 -18 59 10 70 14 5 25 13 25 17 -1 20 -30 43 -53 43 -22 0 -28 6
-37 43 -20 72 -52 108 -66 72z" />
        <path class="path1"
            d="M5314 2465 c-10 -24 4 -45 28 -45 16 0 19 -3 11 -11 -14 -14 -5 -47
16 -59 21 -11 101 23 101 43 0 17 -34 49 -43 40 -4 -3 -16 6 -28 20 -23 30
-76 37 -85 12z" />
        <path class="path1"
            d="M5203 2403 c-7 -17 29 -168 50 -213 7 -14 21 -25 32 -25 17 0 21 8
23 48 2 26 7 47 13 47 15 0 10 37 -7 55 -9 9 -22 14 -29 11 -8 -3 -16 6 -20
22 -8 34 -32 72 -46 72 -5 0 -13 -8 -16 -17z" />
        <path class="path1"
            d="M5023 2333 c-36 -18 -42 -43 -17 -64 12 -10 22 -10 50 0 20 7 38 11
41 8 2 -3 0 -30 -7 -61 -14 -68 -7 -98 23 -94 16 2 24 15 34 53 20 80 17 113
-16 146 -33 33 -60 35 -108 12z" />
        <path class="path1"
            d="M5421 2314 c-55 -70 -31 -174 39 -174 35 0 100 53 100 82 0 32 -29
78 -63 98 -42 26 -52 25 -76 -6z m68 -87 c-22 -17 -24 -18 -27 -3 -2 9 2 24 9
32 9 11 15 12 26 2 13 -10 12 -15 -8 -31z" />
        <path class="path1"
            d="M4852 2297 c-16 -19 14 -59 41 -56 36 2 37 1 22 -41 -24 -68 6 -94
47 -40 30 41 34 90 8 123 -17 22 -29 27 -65 27 -23 0 -47 -6 -53 -13z" />
        <path class="path1"
            d="M4802 2268 c-7 -7 -12 -19 -12 -27 0 -63 60 -162 85 -141 11 9 10 19
-6 53 -10 23 -19 54 -19 68 0 34 -31 64 -48 47z" />
        <path class="path1"
            d="M4613 2229 c-6 -8 -14 -44 -18 -80 -7 -61 -5 -68 15 -82 24 -17 50
-13 50 8 0 8 12 23 26 34 19 15 31 18 49 11 29 -11 40 2 25 29 -15 30 -49 50
-72 43 -14 -3 -27 3 -42 23 -18 22 -24 25 -33 14z" />
        <path class="path1"
            d="M4333 2130 c-45 -20 -53 -39 -28 -60 12 -10 21 -10 41 -1 36 16 41
14 53 -20 17 -48 14 -58 -21 -67 -32 -9 -34 -8 -55 40 -13 27 -29 48 -37 48
-19 0 -20 -10 -2 -78 24 -89 35 -94 136 -64 39 11 60 22 60 32 -1 29 -48 151
-65 170 -22 25 -29 25 -82 0z" />
        <path class="path1"  d="M4460 2136 c0 -7 7 -30 15 -49 8 -20 15 -47 15 -60 0 -29 33 -62 55
-54 8 4 15 14 15 23 0 9 7 22 15 28 14 10 14 13 0 34 -9 12 -22 22 -29 22 -7
0 -20 16 -29 35 -17 35 -57 50 -57 21z"/>
        <path class="path1"
            d="M5203 2128 c-26 -13 -44 -57 -36 -90 15 -60 71 -75 130 -35 49 32 56
83 17 122 -18 17 -78 19 -111 3z m67 -63 c-7 -8 -19 -15 -26 -15 -8 0 -11 6
-8 15 4 8 15 15 26 15 17 0 18 -3 8 -15z" />
        <path class="path1"
            d="M4950 2100 c-30 -16 -65 -30 -77 -30 -27 0 -36 -14 -28 -40 10 -33
40 -42 78 -26 34 14 34 14 46 -19 15 -43 49 -85 67 -85 18 0 18 41 -1 66 -19
26 -19 73 2 96 14 16 14 22 3 43 -17 31 -22 31 -90 -5z" />
        <path class="path1"
            d="M4707 2060 c-36 -22 -72 -40 -79 -40 -38 0 -43 -52 -7 -71 14 -7 27
-5 50 6 17 9 32 15 34 13 2 -2 13 -24 24 -50 39 -91 90 -81 57 11 -22 63 -20
85 9 101 28 15 30 22 15 51 -15 27 -27 24 -103 -21z" />
        <path class="path1"
            d="M6183 2020 c-30 -12 -54 -52 -56 -94 -1 -20 -4 -36 -7 -36 -3 0 -14
16 -24 35 -32 58 -49 69 -90 55 -46 -15 -59 -40 -54 -104 8 -96 77 -168 167
-174 68 -5 113 21 148 83 37 66 24 187 -25 225 -28 22 -28 22 -59 10z m55
-113 c8 -116 -97 -182 -187 -118 -51 37 -60 122 -14 129 17 3 27 -6 42 -37 26
-49 40 -59 57 -37 7 10 16 16 20 14 5 -2 11 12 15 30 7 36 37 74 53 69 6 -2
12 -24 14 -50z" />
        <path class="path1"
            d="M5660 1910 c-25 -25 -27 -86 -2 -120 9 -14 22 -50 28 -80 7 -31 20
-73 29 -95 10 -22 17 -50 16 -63 -3 -27 15 -52 38 -52 21 0 130 57 155 80 25
24 14 54 -17 48 -21 -4 -25 1 -41 64 -21 79 -48 120 -67 100 -11 -10 -11 -20
-1 -55 43 -144 42 -136 21 -142 -27 -9 -45 8 -63 62 -22 63 -20 90 4 98 37 12
21 68 -16 59 -33 -9 -57 12 -43 37 8 16 17 18 45 13 43 -8 47 14 8 45 -34 26
-68 27 -94 1z" />
        <path class="path1"
            d="M4515 1855 c-49 -30 -88 -32 -114 -4 -42 45 -56 -11 -15 -60 28 -33
47 -37 106 -20 58 15 93 50 84 82 -8 33 -11 33 -61 2z" />
        <path class="path1"
            d="M5517 1803 c-4 -3 -7 -21 -7 -39 0 -26 -5 -33 -27 -39 -22 -5 -31 -2
-42 14 -14 22 -36 27 -46 11 -8 -13 19 -118 46 -175 43 -91 89 -76 49 16 -23
54 -20 64 21 74 23 6 27 2 37 -33 15 -50 48 -92 73 -92 25 0 25 2 -16 100 -19
47 -35 94 -35 105 0 22 -26 65 -39 65 -4 0 -11 -3 -14 -7z" />
        <path class="path1"
            d="M5188 1777 c-30 -7 -38 -14 -38 -32 0 -13 5 -27 10 -30 16 -10 12
-22 -11 -28 -25 -7 -23 -44 3 -61 14 -8 24 -7 45 7 16 10 43 25 61 33 28 12
31 17 22 34 -5 10 -15 22 -20 25 -6 3 -10 14 -10 24 0 29 -21 39 -62 28z" />
        <path class="path1"
            d="M4944 1675 c-6 -14 21 -96 49 -155 16 -32 51 -33 55 -3 2 13 13 29
24 37 16 11 19 21 14 42 -6 24 -10 26 -41 21 -31 -5 -34 -3 -49 34 -16 40 -42
52 -52 24z" />
        <path class="path1"
            d="M4755 1636 c-22 -22 -24 -28 -13 -51 12 -28 43 -34 52 -10 5 15 46
22 46 8 0 -4 -11 -23 -25 -43 -21 -30 -24 -42 -16 -63 18 -46 76 -61 119 -31
34 23 26 60 -11 57 -24 -2 -27 1 -21 15 17 40 15 68 -8 102 -32 47 -85 54
-123 16z" />
        <path class="path1"
            d="M4594 1637 c-7 -20 41 -196 75 -271 22 -49 35 -66 50 -66 31 0 33 15
9 65 l-23 47 28 24 c21 18 27 30 22 45 -6 18 -13 20 -41 16 -36 -6 -37 -5 -50
66 -10 59 -57 108 -70 74z" />
        <path class="path1"
            d="M5243 1600 c-26 -11 -53 -59 -53 -95 0 -37 42 -75 82 -75 32 0 74 21
90 44 18 26 7 69 -26 102 -35 35 -54 40 -93 24z m65 -62 c18 -18 15 -27 -15
-39 -34 -13 -49 1 -31 30 15 24 28 27 46 9z" />
        <path class="path1"
            d="M4475 1550 c-6 -9 -18 -44 -67 -187 -9 -25 -8 -36 2 -48 21 -25 41
-17 57 25 17 43 27 47 57 25 23 -17 62 -20 71 -5 7 11 -25 45 -64 71 -23 15
-24 18 -12 48 11 24 11 38 3 56 -12 26 -36 33 -47 15z" />
        <path class="path1"
            d="M4957 1401 c-35 -38 -45 -83 -24 -115 31 -46 100 -36 149 23 24 28
26 35 16 62 -7 21 -22 36 -44 45 -48 20 -66 18 -97 -15z m83 -41 c0 -8 -31
-30 -43 -30 -3 0 -7 9 -10 20 -4 17 0 20 24 20 16 0 29 -4 29 -10z" />
    </g>
</svg>