<?xml version="1.0" standalone="no"?>
<!DOCTYPE svg PUBLIC "-//W3C//DTD SVG 20010904//EN"
 "http://www.w3.org/TR/2001/REC-SVG-20010904/DTD/svg10.dtd">
<svg version="1.0" xmlns="http://www.w3.org/2000/svg"
 width="736.000000pt" height="552.000000pt" viewBox="0 0 736.000000 552.000000"
 preserveAspectRatio="xMidYMid meet">

<g transform="translate(0.000000,552.000000) scale(0.100000,-0.100000)"
fill="#FFFFFF" stroke="none">
<path d="M4315 4470 c-86 -13 -127 -28 -207 -75 -231 -135 -400 -417 -438
-728 -11 -92 0 -281 21 -362 5 -22 14 -56 19 -76 5 -19 28 -80 50 -135 23 -54
42 -105 43 -112 2 -15 -156 -91 -397 -189 -563 -230 -1202 -431 -1771 -557
-419 -93 -611 -124 -826 -133 -163 -7 -218 2 -311 48 -67 34 -68 34 -68 14 0
-25 86 -73 161 -89 167 -38 508 -2 977 105 97 22 206 46 243 54 63 14 314 80
414 109 293 87 816 261 890 296 11 5 38 16 60 23 153 54 587 237 647 273 3 2
23 -24 44 -58 64 -107 144 -208 254 -322 357 -369 774 -569 1263 -607 395 -30
648 64 933 348 188 187 368 507 439 778 70 271 85 675 33 895 -19 78 -72 183
-111 217 -81 71 -185 77 -352 22 -231 -77 -454 -237 -532 -384 -31 -59 -32
-59 -39 -30 -22 92 -124 220 -213 268 -178 97 -462 64 -612 -71 -27 -24 -51
-43 -53 -41 -2 2 -8 31 -15 64 -28 147 -144 316 -271 396 -75 47 -190 72 -275
59z m169 -55 c117 -36 228 -139 295 -277 59 -121 70 -208 37 -303 -8 -22 -21
-65 -30 -95 -8 -30 -29 -76 -45 -103 -75 -118 -293 -308 -491 -429 -117 -72
-375 -208 -393 -208 -18 0 -43 50 -91 190 -44 126 -59 219 -59 375 1 107 5
147 26 228 111 422 459 710 751 622z m2109 -230 c56 -23 92 -60 121 -124 89
-198 93 -610 10 -944 -69 -278 -229 -569 -424 -771 -306 -318 -611 -412 -1082
-336 -266 44 -497 134 -733 288 -229 149 -450 374 -581 591 -19 31 -34 59 -34
63 0 4 35 25 78 46 347 171 651 391 790 571 23 29 27 31 33 15 4 -11 8 -37 8
-60 2 -114 81 -312 156 -393 39 -42 105 -82 105 -64 0 3 -24 29 -54 59 -139
136 -205 436 -140 639 40 129 101 203 209 257 83 41 142 53 260 52 147 -1 206
-23 291 -108 95 -96 140 -213 128 -335 -5 -54 -3 -69 9 -80 26 -21 37 -4 37
54 0 67 29 161 69 224 139 216 577 426 744 356z"/>
<path d="M6265 3879 c-55 -29 -102 -75 -136 -134 -32 -56 -37 -100 -13 -109
23 -9 34 2 34 33 0 74 139 199 205 185 16 -3 36 -13 43 -22 21 -27 31 -80 22
-114 -11 -36 -6 -48 20 -48 39 0 53 79 26 143 -33 81 -119 109 -201 66z"/>
<path d="M5073 3741 c-70 -32 -78 -79 -27 -167 26 -46 87 -104 109 -104 27 0
16 34 -20 63 -34 27 -55 59 -69 104 -6 17 -1 29 20 48 72 67 233 -4 243 -107
1 -11 49 -10 56 2 10 16 -21 75 -56 105 -49 41 -128 75 -174 75 -22 0 -59 -9
-82 -19z"/>
<path d="M5463 3058 c-17 -22 -24 -99 -13 -133 7 -22 21 -37 41 -45 46 -19 64
4 63 78 -2 82 -16 112 -53 112 -15 0 -33 -6 -38 -12z"/>
<path d="M5991 3043 c-30 -37 -35 -68 -19 -111 17 -46 55 -55 89 -21 18 18 21
29 16 73 -5 35 -13 56 -28 69 -28 23 -34 22 -58 -10z"/>
<path d="M5698 2599 c-21 -12 -23 -31 -5 -60 10 -18 9 -23 -16 -45 -15 -13
-37 -24 -47 -24 -28 0 -60 39 -66 82 -7 39 -26 55 -43 35 -12 -16 2 -88 25
-122 30 -46 108 -51 169 -11 20 14 27 13 61 -5 56 -28 79 -24 124 21 45 45 53
84 19 95 -25 8 -23 9 -42 -37 -13 -32 -21 -38 -45 -38 -39 0 -56 21 -47 60 4
19 2 36 -5 45 -14 17 -57 19 -82 4z"/>
<path d="M2537 3391 c-27 -33 -47 -121 -47 -209 0 -29 -2 -52 -5 -52 -3 0 -30
24 -60 54 -66 64 -105 84 -140 68 -14 -6 -27 -23 -31 -36 -5 -21 4 -37 56 -93
80 -89 126 -123 165 -123 29 0 31 -3 44 -57 7 -32 24 -78 37 -102 l24 -44 -27
-29 c-15 -16 -56 -43 -90 -60 -82 -40 -128 -34 -189 27 -62 63 -68 112 -29
255 19 68 15 120 -9 120 -25 0 -37 -28 -55 -127 -19 -108 -50 -176 -114 -249
-46 -52 -84 -74 -127 -74 -72 0 -152 68 -165 139 -25 144 -108 287 -131 226
-6 -16 35 -148 73 -235 16 -36 28 -91 35 -160 12 -112 6 -178 -18 -187 -24 -9
-64 6 -100 40 l-36 32 17 81 c13 63 14 93 6 143 -12 76 -47 155 -91 205 -61
68 -169 106 -213 74 -15 -12 -14 -21 17 -113 46 -138 83 -216 149 -313 63 -92
63 -94 5 -149 -45 -42 -99 -63 -167 -63 -67 0 -135 31 -209 96 l-51 45 54 102
c127 241 156 466 80 617 -29 57 -37 63 -58 47 -15 -11 -13 -20 21 -86 36 -73
37 -78 36 -180 0 -92 -5 -119 -33 -201 -34 -101 -109 -252 -127 -257 -6 -2
-55 48 -108 111 -111 132 -150 161 -201 152 -90 -17 -130 -154 -86 -295 23
-75 60 -125 110 -150 95 -49 171 -33 245 52 l45 50 46 -42 c142 -131 322 -134
445 -8 l44 45 35 -30 c36 -32 89 -58 116 -58 9 0 30 14 47 30 l30 31 -4 108
c-2 72 0 107 7 103 5 -3 21 -13 35 -22 87 -60 189 -21 289 111 l46 59 15 -33
c38 -85 96 -128 176 -130 51 -2 71 3 129 33 71 36 145 99 145 124 0 8 -13 27
-28 44 -29 30 -62 115 -62 157 0 12 9 30 20 40 64 58 71 361 9 373 -9 2 -28
-10 -42 -27z m42 -147 c1 -72 -25 -172 -41 -156 -14 14 -5 198 12 237 l13 30
7 -25 c5 -14 8 -52 9 -86z m-223 -64 c21 -17 54 -49 75 -71 26 -28 41 -37 54
-33 13 5 16 3 13 -12 -5 -25 -49 -23 -83 4 -29 23 -115 123 -115 134 0 15 17
8 56 -22z m-899 -226 c75 -56 124 -162 125 -268 1 -64 -9 -126 -20 -126 -11 1
-88 111 -116 168 -29 58 -86 221 -86 247 0 23 54 11 97 -21z m-668 -198 c13
-12 68 -72 123 -134 l100 -113 -33 -37 c-52 -59 -78 -75 -128 -79 -123 -10
-211 127 -186 293 4 32 16 56 35 76 31 31 49 30 89 -6z"/>
<path d="M4898 1638 c-4 -11 14 -108 31 -168 10 -39 45 -34 49 7 3 29 7 32 40
35 29 2 37 7 37 23 0 16 -10 22 -48 29 -39 8 -49 14 -54 35 -10 45 -45 70 -55
39z"/>
<path d="M5136 1642 c-40 -9 -56 -36 -34 -58 14 -14 21 -14 54 -4 76 24 85 30
82 48 -3 19 -51 25 -102 14z"/>
<path d="M4557 1603 c-7 -11 31 -266 44 -300 6 -16 15 -23 27 -21 18 4 19 16
8 89 l-8 46 51 21 c33 13 51 27 51 38 0 14 -8 16 -55 12 l-54 -5 -6 46 c-3 25
-10 53 -14 61 -9 17 -37 25 -44 13z"/>
<path d="M4743 1595 c-18 -8 -33 -20 -33 -27 0 -23 17 -41 33 -35 11 4 16 -5
20 -36 9 -68 46 -80 110 -35 17 12 27 29 27 44 0 27 -16 30 -44 9 -32 -24 -38
-18 -30 31 9 64 -15 79 -83 49z"/>
<path d="M5647 1563 c-14 -14 -20 -15 -40 -4 -19 10 -30 10 -46 2 -25 -14 -25
-14 -6 -51 19 -37 62 -70 90 -70 44 0 80 87 50 120 -22 24 -26 25 -48 3z"/>
<path d="M5170 1563 c-96 -17 -118 -34 -85 -67 13 -13 22 -13 67 -1 29 8 65
17 81 20 18 3 27 12 27 24 0 28 -26 35 -90 24z"/>
<path d="M5390 1540 c-6 -11 -7 -20 -3 -20 4 0 2 -5 -4 -11 -9 -9 -18 -5 -36
16 -35 42 -51 26 -43 -42 8 -67 21 -93 46 -93 15 0 20 7 20 25 0 32 9 32 36
-2 20 -25 24 -26 37 -13 12 12 13 26 5 78 -12 71 -38 99 -58 62z"/>
<path d="M4405 1500 c-31 -49 -58 -144 -50 -171 4 -11 14 -19 24 -19 14 0 20
11 25 41 6 41 7 41 39 34 55 -13 81 -11 85 6 2 10 -12 22 -40 35 -34 15 -42
24 -40 42 1 12 3 32 5 43 4 38 -21 32 -48 -11z"/>
<path d="M5133 1463 c-23 -9 -15 -72 12 -98 29 -30 58 -32 85 -5 26 26 25 51
-1 84 -20 25 -61 34 -96 19z"/>
<path d="M4865 1400 c-13 -15 -16 -28 -10 -57 19 -105 135 -113 135 -9 0 70
-82 114 -125 66z m82 -46 c3 -8 -1 -23 -10 -32 -15 -14 -17 -14 -23 1 -8 21 1
47 16 47 6 0 13 -7 17 -16z"/>
<path d="M4502 961 c-20 -12 -21 -74 -2 -78 22 -5 51 48 39 70 -11 19 -18 21
-37 8z"/>
<path d="M5273 960 c-26 -10 -30 -32 -10 -48 14 -12 91 2 115 21 35 27 -50 49
-105 27z"/>
<path d="M4963 949 c-19 -20 -15 -67 7 -89 27 -27 25 -30 -10 -30 -19 0 -33 7
-40 21 -13 23 -55 23 -55 -1 0 -30 -25 -33 -50 -6 -35 38 -128 32 -137 -9 -3
-14 -5 -14 -26 1 -13 9 -27 27 -32 40 -5 13 -16 24 -24 24 -29 0 -82 -103 -70
-135 11 -28 44 -17 51 15 6 33 18 37 47 15 23 -17 56 -20 56 -5 0 6 9 10 20
10 17 0 19 -5 13 -32 -3 -18 -11 -36 -17 -40 -6 -4 -48 -8 -94 -8 -66 0 -84
-3 -89 -16 -3 -8 1 -22 9 -30 12 -12 28 -13 92 -5 42 5 87 15 99 23 16 11 29
12 49 4 35 -13 78 14 78 49 0 16 6 25 15 25 8 0 18 0 22 1 4 0 11 -14 16 -32
7 -28 11 -31 36 -26 22 5 33 0 53 -24 18 -20 36 -29 56 -29 34 0 92 19 92 30
0 11 -30 21 -41 14 -5 -3 -9 -1 -9 4 0 6 7 12 15 16 11 4 14 13 9 31 -4 18 -1
32 11 45 29 32 7 58 -44 50 -10 -1 -12 7 -8 33 3 20 0 42 -6 51 -16 22 -78 31
-94 15z m89 -200 c9 -46 3 -48 -32 -11 -33 37 -34 37 -54 16 -14 -14 -16 -14
-16 0 0 15 50 35 80 31 8 -1 18 -17 22 -36z m-247 11 c-3 -5 -13 -10 -21 -10
-8 0 -14 5 -14 10 0 6 9 10 21 10 11 0 17 -4 14 -10z"/>
<path d="M5845 945 l-60 -11 3 -45 c2 -33 9 -49 29 -65 32 -26 23 -44 -22 -44
-38 0 -49 -11 -40 -40 7 -23 49 -26 136 -10 35 7 56 7 63 0 18 -18 38 -11 68
22 15 17 28 35 28 40 0 4 11 3 25 -2 31 -12 52 -4 58 22 6 23 33 19 29 -4 -3
-20 24 -42 43 -34 18 6 22 101 5 111 -19 12 -110 -6 -110 -21 0 -8 -4 -14 -10
-14 -5 0 -10 13 -10 28 0 63 -43 62 -61 -2 l-12 -41 -7 33 c-4 18 -9 34 -11
35 -2 1 -17 11 -34 23 -45 31 -46 31 -110 19z m94 -67 c0 -13 -3 -17 -6 -10
-2 6 -12 12 -21 12 -15 0 -15 2 -2 10 23 15 30 12 29 -12z m9 -75 c-2 -9 -13
-18 -25 -19 -18 -3 -23 1 -23 17 0 29 32 53 43 33 5 -8 7 -22 5 -31z"/>
<path d="M6346 939 c-21 -16 -26 -29 -26 -64 0 -24 -3 -50 -6 -59 -12 -31 -24
-15 -24 33 0 53 -21 84 -42 63 -17 -17 -10 -133 9 -154 28 -31 151 -50 178
-28 9 7 12 38 10 107 -2 80 -5 98 -20 110 -26 18 -48 16 -79 -8z m44 -134 c0
-8 -4 -15 -10 -15 -5 0 -10 7 -10 15 0 8 5 15 10 15 6 0 10 -7 10 -15z"/>
<path d="M5491 932 c-7 -13 -7 -22 1 -30 17 -17 1 -44 -24 -40 -16 2 -24 11
-26 30 -3 23 -35 48 -47 36 -2 -1 0 -48 3 -103 l7 -100 29 -3 c28 -4 29 -3 23
37 -4 36 -2 43 21 60 19 12 38 17 64 14 43 -6 111 14 105 30 -2 7 -15 13 -30
15 -23 3 -25 6 -15 22 18 29 -6 50 -58 50 -32 0 -46 -5 -53 -18z"/>
<path d="M6540 934 c-11 -12 -10 -18 3 -31 15 -15 15 -19 2 -33 -27 -30 -8
-50 44 -50 55 0 85 17 75 43 -6 18 -90 87 -104 87 -4 0 -13 -7 -20 -16z"/>
<path d="M4325 928 c-3 -7 1 -47 7 -88 11 -66 16 -75 36 -78 18 -3 23 2 28 26
4 19 14 32 26 35 30 8 19 41 -15 45 -18 2 -27 9 -27 21 0 17 -29 51 -44 51 -3
0 -9 -6 -11 -12z"/>
<path d="M3863 923 c-20 -7 -15 -26 12 -56 29 -31 43 -34 52 -11 13 33 -30 78
-64 67z"/>
<path d="M6728 913 c-70 -44 -48 -106 38 -107 58 -1 69 23 16 36 -32 8 -36 28
-6 28 20 0 29 27 14 45 -16 19 -28 19 -62 -2z"/>
<path d="M3193 908 c-22 -28 -23 -76 -2 -102 12 -16 23 -48 26 -81 l6 -55 -41
0 c-30 0 -44 -5 -51 -19 -21 -37 7 -43 123 -25 l106 17 25 -27 c30 -32 88 -35
149 -7 23 10 79 24 125 30 79 10 111 22 111 42 0 5 -20 9 -45 9 -42 0 -45 2
-53 33 -5 20 -5 38 2 49 14 24 -11 51 -41 43 -13 -3 -23 -1 -23 5 0 5 6 10 13
10 7 0 22 6 32 14 17 12 17 16 5 31 -10 12 -23 15 -54 10 -67 -10 -76 -15 -76
-38 0 -19 -6 -23 -37 -23 -21 0 -64 -6 -95 -13 -74 -16 -75 -29 -14 -91 22
-23 18 -25 -60 -34 -51 -6 -51 -6 -58 25 -10 53 -7 78 14 99 22 22 27 79 8 98
-16 16 -83 15 -95 0z m62 -49 c0 -7 -8 -15 -17 -17 -12 -2 -15 2 -11 18 6 23
28 22 28 -1z m321 -93 c25 -8 49 -55 36 -68 -5 -5 -29 -12 -53 -15 -24 -3 -52
-14 -62 -24 -19 -20 -62 -25 -72 -9 -3 5 16 20 42 32 57 27 71 63 29 74 -29 7
-25 24 5 24 10 0 19 5 19 12 0 7 6 5 18 -4 9 -9 26 -19 38 -22z"/>
<path d="M3345 900 c-4 -13 0 -31 10 -47 16 -23 21 -25 68 -19 57 8 83 26 74
50 -7 18 -34 20 -70 7 -21 -8 -26 -6 -30 10 -7 26 -44 25 -52 -1z"/>
<path d="M4218 898 c-29 -10 -36 -36 -16 -56 9 -9 4 -12 -24 -12 -31 0 -37 4
-47 30 -6 20 -17 30 -30 30 -26 0 -30 -16 -15 -59 7 -20 13 -57 14 -82 0 -54
19 -85 45 -75 15 5 17 14 12 50 -7 47 0 58 42 71 15 5 26 3 31 -6 12 -18 68
-15 87 4 15 15 14 17 -12 27 -21 8 -25 14 -17 22 17 17 15 55 -4 62 -20 8 -33
7 -66 -6z"/>
<path d="M5268 883 c-43 -4 -48 -7 -48 -28 0 -13 5 -27 11 -31 6 -3 8 -15 6
-26 -7 -26 18 -85 42 -98 38 -20 111 24 111 67 0 28 -36 67 -55 59 -8 -3 -17
-1 -20 4 -4 6 3 10 14 10 29 0 51 11 51 25 0 15 -24 26 -48 23 -9 -1 -38 -3
-64 -5z m72 -107 c0 -14 -29 -31 -38 -22 -2 3 -2 12 1 21 8 19 37 20 37 1z"/>
<path d="M3972 846 c-14 -18 -44 -136 -38 -152 7 -17 46 -19 46 -1 1 30 15 37
48 25 25 -10 34 -10 44 0 11 11 6 19 -22 42 -28 23 -34 35 -32 58 3 23 -1 31
-17 35 -11 3 -24 0 -29 -7z"/>
<path d="M5488 809 c-5 -4 -8 -15 -6 -25 2 -14 13 -20 46 -22 44 -3 47 -7 54
-71 2 -13 11 -29 21 -35 25 -16 38 8 35 64 -3 40 -1 45 20 48 27 4 30 38 5 46
-23 7 -161 3 -175 -5z"/>
<path d="M4253 728 c-13 -6 -23 -19 -23 -29 0 -30 42 -69 80 -75 79 -12 123
43 74 93 -25 25 -90 31 -131 11z m97 -43 c0 -16 -35 -21 -44 -6 -8 12 4 21 26
21 10 0 18 -7 18 -15z"/>
</g>
</svg>
